<svg width="780" height="801" viewBox="0 0 780 801" fill="none" xmlns="http://www.w3.org/2000/svg">
<path d="M356.758 468.632C356.758 468.632 358.09 431.562 356.758 426.98C355.426 422.398 318.716 390.567 318.716 390.567C318.716 390.567 308.704 324.228 291.36 309.265L149.861 326.182C149.861 326.182 139.849 335.298 140.523 364.63C141.197 393.963 142.528 407.548 135.18 420.556C127.831 433.564 120.499 471.948 134.522 491.461C148.545 510.973 153.198 515.491 165.89 514.866C178.581 514.241 356.758 468.632 356.758 468.632Z" fill="#C0DFA1"/>
<path opacity="0.7" d="M356.758 468.632C356.758 468.632 358.09 431.562 356.758 426.98C355.426 422.398 318.716 390.567 318.716 390.567C318.716 390.567 308.704 324.228 291.36 309.265L149.861 326.182C149.861 326.182 139.849 335.298 140.523 364.63C141.197 393.963 142.528 407.548 135.18 420.556C127.831 433.564 120.499 471.948 134.522 491.461C148.545 510.973 153.198 515.491 165.89 514.866C178.581 514.241 356.758 468.632 356.758 468.632Z" fill="white"/>
<path d="M356.758 426.996L124.51 471.227C124.51 471.227 129.179 520.665 161.221 516.083C193.262 511.502 358.106 475.12 357.449 471.868C356.791 468.616 356.758 426.996 356.758 426.996Z" fill="#C0DFA1"/>
<path opacity="0.5" d="M356.758 426.996L124.51 471.227C124.51 471.227 129.179 520.665 161.221 516.083C193.262 511.502 358.106 475.12 357.449 471.868C356.791 468.616 356.758 426.996 356.758 426.996Z" fill="white"/>
<path d="M595.352 331.95C595.352 331.95 590.206 469.273 595.352 471.42C600.497 473.566 652.596 458.604 654.799 454.967C657.002 451.331 666.537 317.66 654.799 317.66C643.061 317.66 595.352 331.95 595.352 331.95Z" fill="#C0DFA1"/>
<path d="M590.206 332.67C594.612 335.538 590.946 462.833 582.134 472.845C573.322 482.858 505.063 495.738 503.6 488.577C502.137 481.416 504.34 303.354 504.34 303.354C504.34 303.354 585.8 329.819 590.206 332.67ZM654.799 317.66C654.799 317.66 582.874 286.901 571.119 287.622C559.365 288.343 496.268 298.34 504.34 306.926C512.412 315.513 584.337 331.245 595.352 331.95C606.367 332.654 654.799 317.66 654.799 317.66Z" fill="#C0DFA1"/>
<path opacity="0.5" d="M595.352 331.95C595.352 331.95 590.206 469.273 595.352 471.42C600.497 473.566 652.596 458.604 654.799 454.967C657.002 451.331 666.537 317.66 654.799 317.66C643.061 317.66 595.352 331.95 595.352 331.95Z" fill="white"/>
<path opacity="0.7" d="M590.206 332.67C594.612 335.538 590.946 462.833 582.134 472.845C573.322 482.858 505.063 495.738 503.6 488.577C502.137 481.416 504.34 303.354 504.34 303.354C504.34 303.354 585.8 329.819 590.206 332.67ZM654.799 317.66C654.799 317.66 582.874 286.901 571.119 287.622C559.365 288.343 496.268 298.34 504.34 306.926C512.412 315.513 584.337 331.245 595.352 331.95C606.367 332.654 654.799 317.66 654.799 317.66Z" fill="white"/>
<path d="M156.848 325.205C156.848 325.205 246.61 310.787 292.642 309.185C309.082 325.205 313.767 368.043 317.877 388.869C317.877 388.869 356.758 424.753 356.758 427.733C356.758 430.713 357.859 475.793 357.859 475.793" stroke="#011936" stroke-linecap="round" stroke-linejoin="round"/>
<path d="M137.268 418.954L241.119 402.502L316.053 388.869" stroke="#011936" stroke-linecap="round" stroke-linejoin="round"/>
<path d="M123.77 470.346L347.19 428.726" stroke="#011936" stroke-linecap="round" stroke-linejoin="round"/>
<path d="M198.934 409.31C198.934 409.31 235.102 444.554 234.28 449.36L232.636 499.823" stroke="#011936" stroke-linecap="round" stroke-linejoin="round"/>
<path d="M156.502 516.981L344.74 476.915" stroke="#011936" stroke-linecap="round" stroke-linejoin="round"/>
<path d="M505.54 398.096V304.379L589.384 332.414V460.574" stroke="#011936" stroke-linecap="round" stroke-linejoin="round"/>
<path d="M504.718 406.378V495.017" stroke="#011936" stroke-linecap="round" stroke-linejoin="round"/>
<path d="M589.384 332.414L656.788 316.394V448.559" stroke="#011936" stroke-linecap="round" stroke-linejoin="round"/>
<path d="M505.54 304.379L577.876 289.16L656.788 316.394L589.384 332.414L505.54 304.379Z" stroke="#011936" stroke-linecap="round" stroke-linejoin="round"/>
<path d="M544.996 317.996V480.07" stroke="#011936" stroke-linecap="round" stroke-linejoin="round"/>
<path d="M554.975 393.162C554.975 396.142 553.627 398.561 551.983 398.561C550.339 398.561 548.991 396.142 548.991 393.162C548.991 390.182 550.323 387.763 551.983 387.763C553.643 387.763 554.975 390.182 554.975 393.162Z" fill="#011936"/>
<path d="M540.886 388.164C540.886 391.159 539.554 393.578 537.894 393.578C536.233 393.578 534.918 391.159 534.918 388.164C534.918 385.168 536.25 382.765 537.894 382.765C539.538 382.765 540.886 385.184 540.886 388.164Z" fill="#011936"/>
<path d="M357.859 439.476L477.313 498.221" stroke="#011936" stroke-linecap="round" stroke-linejoin="round"/>
<path d="M591.998 249.318C589.637 251.991 588.043 255.224 587.378 258.69L578.09 263.768V239.738L578.271 239.979L593.067 229.438C598.386 230.224 603.826 229.402 608.652 227.083C616.247 223.094 621.804 209.461 621.804 209.461C621.804 209.461 603.72 207.474 597.571 214.875C594.21 218.713 592.419 223.624 592.54 228.669L578.106 238.969V221.267C580.812 220.047 583.204 218.253 585.107 216.016C587.01 213.78 588.376 211.157 589.104 208.339C591.735 198.391 577.712 178.75 577.712 178.75C577.712 178.75 563.113 198.951 566.039 209.188C566.72 211.939 568.09 214.482 570.026 216.59C571.963 218.698 574.406 220.305 577.136 221.267V259.715L566.713 251.257C566.935 248.578 566.572 245.884 565.648 243.352C564.724 240.82 563.261 238.508 561.354 236.566C554.35 228.877 535.658 229.454 535.658 229.454C535.658 229.454 543.549 244.817 550.257 249.943C556.126 254.413 564.231 252.586 566.187 252.058L577.136 260.949V272.627H560.861L567.437 313.078H587.411L593.987 272.627H578.024V264.906L588.233 259.331C593.529 260.815 599.194 260.411 604.213 258.193C612.433 254.204 619.091 245.666 619.091 245.666C619.091 245.666 599.593 240.78 591.998 249.318Z" fill="#011936"/>
<path d="M451.798 557.495L380.037 577.969C379.693 578.068 379.383 578.256 379.14 578.514C378.898 578.772 378.732 579.089 378.661 579.432C378.59 579.775 378.617 580.13 378.737 580.459C378.858 580.789 379.069 581.08 379.347 581.301L406.078 602.608C407.639 603.857 409.499 604.703 411.484 605.067C413.47 605.431 415.518 605.301 417.438 604.69L483.198 583.736C483.515 583.625 483.798 583.437 484.019 583.189C484.24 582.942 484.392 582.643 484.462 582.322C484.531 582.001 484.515 581.668 484.414 581.354C484.314 581.041 484.133 580.758 483.889 580.532L458.686 558.905C457.752 558.125 456.631 557.586 455.427 557.34C454.223 557.093 452.975 557.147 451.798 557.495Z" fill="#011936"/>
<path d="M416.846 558.649C414.919 559.427 413.198 560.619 411.809 562.136C410.421 563.653 409.402 565.456 408.828 567.41C408.255 569.364 408.141 571.419 408.496 573.422C408.851 575.425 409.665 577.324 410.878 578.978L411.01 579.17C415.843 585.29 439.994 588.574 451.091 585.754C462.188 582.935 463.848 575.165 456.878 569.286C452.62 565.697 437.15 557.527 425.494 557.063C422.524 556.931 419.564 557.474 416.846 558.649Z" fill="white" stroke="#011936" stroke-linecap="round" stroke-linejoin="round"/>
<path d="M526.09 591.938L473.811 547.451C473.222 546.95 472.782 546.304 472.538 545.581C472.294 544.857 472.253 544.083 472.421 543.339C472.59 542.596 472.96 541.91 473.494 541.353C474.027 540.797 474.705 540.391 475.455 540.178L581.46 511.55C583.887 510.895 586.441 510.823 588.903 511.339C591.365 511.855 593.662 512.944 595.598 514.514L646.924 555.893L526.09 591.938Z" fill="#C0DFA1" stroke="#011936" stroke-linecap="round" stroke-linejoin="round"/>
<path d="M582.233 550.879L586.376 554.403L595.352 552.112L591.16 548.54L582.233 550.879Z" fill="#011936"/>
<path d="M562.784 534.298L571.81 532.039L567.782 528.595L558.789 530.886L562.784 534.298Z" fill="#011936"/>
<path d="M569.705 528.114L573.75 531.559L582.775 529.316L578.698 525.84L569.705 528.114Z" fill="#011936"/>
<path d="M586.211 530.117L590.535 533.802L598.689 531.767L594.185 528.13L586.211 530.117Z" fill="#011936"/>
<path d="M592.047 535.083L596.371 538.784L604.772 536.685L600.251 533.033L592.047 535.083Z" fill="#011936"/>
<path d="M612.499 542.949L603.901 545.192L608.159 548.828L616.97 546.569L612.499 542.949Z" fill="#011936"/>
<path d="M601.993 545.704L593.067 548.043L597.259 551.616L606.235 549.309L601.993 545.704Z" fill="#011936"/>
<path d="M597.867 540.065L602.421 543.926L610.953 541.699L606.334 537.951L597.867 540.065Z" fill="#011936"/>
<path d="M579.586 536.541L588.611 534.282L584.271 530.598L575.246 532.84L579.586 536.541Z" fill="#011936"/>
<path d="M546.344 558.633L541.149 554.195L532.124 556.438L537.434 560.971L546.344 558.633Z" fill="#011936"/>
<path d="M539.653 552.913L535.313 549.213L526.287 551.472L530.611 555.156L539.653 552.913Z" fill="#011936"/>
<path d="M533.817 547.947L529.477 544.247L520.451 546.489L524.791 550.19L533.817 547.947Z" fill="#011936"/>
<path d="M551.835 537.022L560.861 534.779L556.866 531.367L547.873 533.657L551.835 537.022Z" fill="#011936"/>
<path d="M551.802 563.278L547.84 559.898L538.913 562.237L542.826 565.569L551.802 563.278Z" fill="#011936"/>
<path d="M540.87 539.761L549.895 537.502L545.95 534.138L536.957 536.413L540.87 539.761Z" fill="#011936"/>
<path d="M529.904 542.484L538.946 540.242L535.033 536.909L526.041 539.184L529.904 542.484Z" fill="#011936"/>
<path d="M518.955 545.208L527.981 542.965L524.117 539.681L515.125 541.956L518.955 545.208Z" fill="#011936"/>
<path d="M565.004 548.252L569.919 552.449L578.846 550.11L574.029 545.993L565.004 548.252Z" fill="#011936"/>
<path d="M564.297 535.58L568.62 539.264L577.646 537.022L573.322 533.321L564.297 535.58Z" fill="#011936"/>
<path d="M596.848 553.378L587.872 555.685L592.458 559.594L601.369 557.239L596.848 553.378Z" fill="#011936"/>
<path d="M574.457 544.247L583.482 541.988L579.142 538.303L570.116 540.546L574.457 544.247Z" fill="#011936"/>
<path d="M557.655 542.004L566.697 539.745L562.357 536.06L553.331 538.303L557.655 542.004Z" fill="#011936"/>
<path d="M581.082 537.823L585.406 541.507L594.448 539.264L590.107 535.564L581.082 537.823Z" fill="#011936"/>
<path d="M558.099 568.645L553.298 564.544L544.322 566.851L549.188 571L558.099 568.645Z" fill="#011936"/>
<path d="M584.978 543.269L575.953 545.512L580.753 549.613L589.68 547.274L584.978 543.269Z" fill="#011936"/>
<path d="M595.944 540.546L586.918 542.789L591.587 546.778L600.514 544.439L595.944 540.546Z" fill="#011936"/>
<path d="M546.706 544.727L555.731 542.484L551.391 538.784L542.366 541.043L546.706 544.727Z" fill="#011936"/>
<path d="M575.065 558.969L566.089 561.26L570.823 565.297L579.734 562.942L575.065 558.969Z" fill="#011936"/>
<path d="M585.948 556.166L576.988 558.472L581.641 562.445L590.551 560.09L585.948 556.166Z" fill="#011936"/>
<path d="M535.74 547.467L544.766 545.208L540.442 541.507L531.417 543.766L535.74 547.467Z" fill="#011936"/>
<path d="M568.916 565.793L564.182 561.756L555.205 564.063L560.006 568.148L568.916 565.793Z" fill="#011936"/>
<path d="M580.326 551.375L571.399 553.714L575.492 557.191L584.452 554.9L580.326 551.375Z" fill="#011936"/>
<path d="M550.602 550.19L546.278 546.489L537.253 548.732L541.577 552.433L550.602 550.19Z" fill="#011936"/>
<path d="M557.178 555.797L552.098 551.456L543.073 553.714L548.251 558.136L557.178 555.797Z" fill="#011936"/>
<path d="M562.685 560.491L558.674 557.063L549.747 559.402L553.709 562.782L562.685 560.491Z" fill="#011936"/>
<path d="M519.662 557.896L517.722 558.376L519.234 559.658L521.158 559.177L519.662 557.896Z" fill="#011936"/>
<path d="M535.527 561.468L530.184 556.918L521.158 559.177L526.6 563.807L535.527 561.468Z" fill="#011936"/>
<path d="M540.902 566.066L537.006 562.734L528.079 565.073L531.943 568.373L540.902 566.066Z" fill="#011936"/>
<path d="M568.012 552.945L563.064 548.732L554.038 550.975L559.085 555.284L568.012 552.945Z" fill="#011936"/>
<path d="M526.6 563.807L524.693 564.304L526.172 565.569L528.079 565.073L526.6 563.807Z" fill="#011936"/>
<path d="M528.688 555.637L524.347 551.952L515.322 554.195L519.662 557.896L528.688 555.637Z" fill="#011936"/>
<path d="M573.569 557.687L569.492 554.211L560.581 556.566L564.609 559.994L573.569 557.687Z" fill="#011936"/>
<path d="M513.826 552.913L511.902 553.394L513.398 554.676L515.322 554.195L513.826 552.913Z" fill="#011936"/>
<path d="M552.542 549.693L561.568 547.451L557.227 543.766L548.202 546.009L552.542 549.693Z" fill="#011936"/>
<path d="M553.183 576.527L548.777 572.762L539.867 575.117L544.519 579.09L553.183 576.527Z" fill="#011936"/>
<path d="M537.96 575.614L528.803 578.033L533.833 582.246L542.662 579.635L537.96 575.614Z" fill="#011936"/>
<path d="M615.573 555.156L618.17 557.367L627.065 554.74L624.631 552.769L615.573 555.156Z" fill="#011936"/>
<path d="M538.371 573.852L536.464 574.348L537.96 575.614L539.867 575.117L538.371 573.852Z" fill="#011936"/>
<path d="M568.193 541.027L559.167 543.285L563.491 546.97L572.517 544.727L568.193 541.027Z" fill="#011936"/>
<path d="M531.943 568.373L530.019 568.853L531.515 570.135L533.439 569.638L531.943 568.373Z" fill="#011936"/>
<path d="M522.851 550.671L518.528 546.97L509.486 549.229L513.826 552.913L522.851 550.671Z" fill="#011936"/>
<path d="M547.281 571.497L542.399 567.331L533.439 569.638L538.371 573.852L547.281 571.497Z" fill="#011936"/>
<path d="M492.487 547.691L496.268 550.863L506.066 548.428L502.285 545.208L492.487 547.691Z" fill="#011936"/>
<path d="M598.755 552.881L603.276 556.742L612.186 554.387L607.731 550.591L598.755 552.881Z" fill="#011936"/>
<path d="M602.848 558.504L593.938 560.859L597.127 563.567L605.791 561.004L602.848 558.504Z" fill="#011936"/>
<path d="M613.666 555.653L604.755 558.008L607.649 560.459L616.313 557.912L613.666 555.653Z" fill="#011936"/>
<path d="M618.516 547.819L609.638 550.094L614.093 553.891L623.086 551.52L618.516 547.819Z" fill="#011936"/>
<path d="M507.99 547.947L506.066 548.428L507.562 549.709L509.486 549.229L507.99 547.947Z" fill="#011936"/>
<path d="M570.412 567.059L561.502 569.414L565.562 572.89L574.226 570.327L570.412 567.059Z" fill="#011936"/>
<path d="M584.699 528.835L592.623 526.865L588.332 523.389L580.622 525.343L584.699 528.835Z" fill="#011936"/>
<path d="M592.047 561.356L583.12 563.711L586.606 566.675L595.269 564.111L592.047 561.356Z" fill="#011936"/>
<path d="M581.23 564.208L572.319 566.562L576.084 569.782L584.748 567.219L581.23 564.208Z" fill="#011936"/>
<path d="M522.194 572.522L527.29 576.767L536.464 574.348L531.515 570.135L522.194 572.522Z" fill="#011936"/>
<path d="M513.201 542.436L504.208 544.727L507.99 547.947L517.015 545.688L513.201 542.436Z" fill="#011936"/>
<path d="M497.797 552.144L502.203 555.813L511.902 553.394L507.562 549.709L497.797 552.144Z" fill="#011936"/>
<path d="M563.705 573.435L559.595 569.911L550.684 572.266L555.041 575.982L563.705 573.435Z" fill="#011936"/>
<path d="M516.818 568.02L520.681 571.256L530.019 568.853L526.172 565.569L516.818 568.02Z" fill="#011936"/>
<path d="M509.65 562.045L515.305 566.771L524.693 564.304L519.235 559.658L509.65 562.045Z" fill="#011936"/>
<path d="M503.732 557.095L508.121 560.763L517.722 558.376L513.398 554.676L503.732 557.095Z" fill="#011936"/>
<path d="M557.523 506.76L526.09 591.938L646.924 555.893L685.41 473.55C685.715 472.893 685.821 472.165 685.716 471.451C685.611 470.737 685.3 470.067 684.819 469.519C684.338 468.971 683.707 468.568 682.999 468.357C682.291 468.146 681.537 468.136 680.823 468.328L566.237 498.91C564.244 499.441 562.413 500.432 560.896 501.798C559.38 503.164 558.223 504.866 557.523 506.76Z" fill="#C0DFA1" stroke="#011936" stroke-linecap="round" stroke-linejoin="round"/>
<path d="M620.669 522.539C622.313 526.208 619.469 530.854 614.439 532.904C609.408 534.955 604.065 533.641 602.487 529.973C600.908 526.304 603.687 521.658 608.717 519.608C613.748 517.557 619.091 518.871 620.669 522.539Z" fill="#011936"/>
<path d="M322.398 587.837L234.724 607.878L288.154 689.436L380.629 670.981L322.398 587.837Z" fill="white" stroke="#011936" stroke-linecap="round" stroke-linejoin="round"/>
<path d="M263.05 591.137L327.166 668.834L414.298 641.6L343.606 570.311L263.05 591.137Z" fill="white" stroke="#011936" stroke-linecap="round" stroke-linejoin="round"/>
<path d="M286.987 602.624L342.455 586.636" stroke="#011936" stroke-linecap="round" stroke-linejoin="round"/>
<path d="M295.519 610.105L350.988 594.117" stroke="#011936" stroke-linecap="round" stroke-linejoin="round"/>
<path d="M304.051 617.586L359.52 601.598" stroke="#011936" stroke-linecap="round" stroke-linejoin="round"/>
<path d="M312.584 625.068L368.069 609.096" stroke="#011936" stroke-linecap="round" stroke-linejoin="round"/>
<path d="M321.116 632.565L376.601 616.577" stroke="#011936" stroke-linecap="round" stroke-linejoin="round"/>
<path d="M329.648 640.046L385.133 624.058" stroke="#011936" stroke-linecap="round" stroke-linejoin="round"/>
<path d="M338.197 647.528L393.666 631.54" stroke="#011936" stroke-linecap="round" stroke-linejoin="round"/>
<path d="M365.8 361.25L249.076 386.081C249.076 386.081 254.83 475.793 264.694 512.639C264.694 512.639 274.969 548.107 280.822 559.097L390.887 530.966C390.887 530.966 374.842 489.41 365.8 361.25Z" fill="#011936" stroke="#011936" stroke-linecap="round" stroke-linejoin="round"/>
<path d="M447.852 374.13C438.777 366.232 427.812 368.091 416.846 363.909C409.058 361.11 401.103 358.772 393.025 356.909L391.101 356.476C391.101 356.476 386.334 346.72 377.752 348.114C369.17 349.507 333.413 373.265 330.553 379.673C327.692 386.081 327.692 447.982 328.169 469.385C328.481 483.931 331.457 495.45 336.948 503.396L328.267 547.354L449.759 515.843C449.759 515.843 441.457 511.678 441.161 487.968C441.161 483.387 443.068 471.243 445.468 457.306C446.913 448.08 447.392 438.735 446.899 429.415C451.139 430.862 455.28 432.575 459.294 434.542C465.969 437.746 505.54 453.589 505.54 453.589L517.048 433.148C517.048 433.148 456.911 382.028 447.852 374.13Z" fill="#C0DFA1" stroke="#011936" stroke-linecap="round" stroke-linejoin="round"/>
<path d="M147.427 593.268L701.176 452.564" stroke="#011936" stroke-linecap="round" stroke-linejoin="round"/>
<path d="M339.019 464.948C339.019 464.948 350.051 439.668 355.229 418.185" stroke="#011936" stroke-linecap="round" stroke-linejoin="round"/>
<path d="M335.139 472.589C335.139 472.589 355.229 452.997 361.065 433.404" stroke="#011936" stroke-linecap="round" stroke-linejoin="round"/>
<path d="M392.811 490.884C392.811 490.884 412.44 480.904 420.973 471.756" stroke="#011936" stroke-linecap="round" stroke-linejoin="round"/>
<path d="M358.073 377.286C358.073 377.286 359.158 377.382 363.005 384.816C366.852 392.249 371.554 404.328 371.554 404.328L380.136 395.965L388.241 406.651" stroke="#011936" stroke-linecap="round" stroke-linejoin="round"/>
<path d="M409.004 367.354C409.004 367.354 412.555 371.343 415.416 380.17C418.276 388.997 418.276 390.855 418.276 390.855L406.768 388.532L404.861 404.328" stroke="#011936" stroke-linecap="round" stroke-linejoin="round"/>
<path d="M444.992 402.47L446.882 429.431L451.189 395.036" stroke="#011936" stroke-linecap="round" stroke-linejoin="round"/>
<path d="M398.039 347.777L394.57 360.209C397.955 366.967 400.388 374.139 401.804 381.531C404.713 397.135 401.656 427.989 401.656 427.989C401.656 427.989 388.175 398.961 380.382 385.136C372.59 371.311 369.729 364.39 369.022 357.485C368.315 350.581 373.28 332.606 374.694 330.524C376.108 328.441 398.039 347.777 398.039 347.777Z" fill="white" stroke="#011936" stroke-linecap="round" stroke-linejoin="round"/>
<path d="M425 238.569C417.079 232.034 407.501 227.694 397.269 226.003C387.036 224.312 376.525 225.332 366.836 228.957C332.789 241.324 332.098 280.029 332.098 302.152C332.098 324.276 322.645 360.481 304.923 377.062C287.2 393.643 280.263 411.361 284.57 430.024C288.877 448.687 306.55 459.741 319.324 458.363C332.098 456.986 324.256 401.685 337.063 390.631C349.87 379.577 366.145 369.805 376.782 338.79C382.874 331.326 387.01 322.528 388.832 313.158C391.677 297.955 402.313 273.765 413.657 271.698C425 269.632 428.568 302.793 424.31 315.241C420.052 327.688 398.762 342.202 398.006 347.729C397.278 351.982 396.094 356.149 394.471 360.161C394.471 360.161 406.801 367.578 428.519 369.773C431.575 370.148 434.668 370.148 437.725 369.773C437.725 369.773 442.821 365.656 457.042 342.827C471.016 320.399 457.848 264.65 442.246 251.513C426.644 238.377 425 238.569 425 238.569Z" fill="#011936" stroke="#011936" stroke-linecap="round" stroke-linejoin="round"/>
<path d="M309.246 383.918C306.946 385.19 304.569 386.324 302.128 387.315" stroke="white" stroke-linecap="round" stroke-linejoin="round"/>
<path d="M303.197 379.128C303.197 379.128 283.469 389.83 284.06 418.586C284.569 430.342 289.36 441.536 297.574 450.161" stroke="white" stroke-linecap="round" stroke-linejoin="round"/>
<path d="M356.89 276.392C349.376 304.86 346.253 341.145 335.945 359.216C331.395 366.809 325.229 373.364 317.861 378.44" stroke="white" stroke-linecap="round" stroke-linejoin="round"/>
<path d="M427.976 260.901C427.976 260.901 429.62 252.266 419.099 243.615C409.087 235.397 371.505 240.411 360.21 265.947" stroke="white" stroke-linecap="round" stroke-linejoin="round"/>
<path d="M398.927 229.085C390.727 226.192 381.719 226.363 373.642 229.566C363.824 233.178 355.242 239.402 348.872 247.529C342.502 255.657 338.598 265.362 337.605 275.543C335.386 294.991 338.164 325.205 329.287 344.141" stroke="white" stroke-linecap="round" stroke-linejoin="round"/>
<path d="M412.999 237.095C411.251 235.546 409.351 234.167 407.327 232.978" stroke="white" stroke-linecap="round" stroke-linejoin="round"/>
<path d="M456.795 337.621C457.354 334.927 457.755 332.204 457.995 329.466" stroke="white" stroke-linecap="round" stroke-linejoin="round"/>
<path d="M458.242 322.001C457.404 288.471 431.297 267.95 431.297 267.95" stroke="white" stroke-linecap="round" stroke-linejoin="round"/>
<path d="M427.121 265.515C427.121 265.515 439.188 291.147 433.516 311.14C427.845 331.132 415.778 347.777 407.212 351.926C398.647 356.076 376.716 338.79 376.716 338.79C376.716 338.79 383.802 323.587 383.802 307.679C383.802 291.771 389.49 272.435 402.248 266.219C406.109 264.402 410.321 263.399 414.607 263.278C418.894 263.156 423.158 263.919 427.121 265.515Z" fill="white" stroke="#011936" stroke-linecap="round" stroke-linejoin="round"/>
<path d="M412.654 305.981C412.268 308.931 412.491 311.927 413.312 314.792C414.676 318.461 418.096 320.784 415.367 321.456C412.763 321.858 410.121 321.97 407.492 321.793" stroke="#011936" stroke-linecap="round" stroke-linejoin="round"/>
<path d="M403.25 332.334C405.689 333.676 408.535 334.141 411.29 333.648" stroke="#011936" stroke-linecap="round" stroke-linejoin="round"/>
<path d="M400.982 306.093C400.982 307.936 400.143 309.425 399.107 309.425C398.072 309.425 397.217 307.936 397.217 306.093C397.217 304.251 398.055 302.761 399.107 302.761C400.16 302.761 400.982 304.251 400.982 306.093Z" fill="#011936"/>
<path d="M424.458 305.052C424.458 306.878 423.62 308.384 422.584 308.384C421.548 308.384 420.693 306.878 420.693 305.052C420.693 303.226 421.548 301.72 422.584 301.72C423.62 301.72 424.458 303.21 424.458 305.052Z" fill="#011936"/>
<path d="M429.719 295.264C429.424 295.337 429.115 295.329 428.825 295.242C428.534 295.154 428.275 294.99 428.075 294.767C427.637 294.146 427.057 293.631 426.381 293.264C425.705 292.898 424.951 292.688 424.178 292.652C422.442 292.998 420.91 293.985 419.904 295.408C419.655 295.758 419.274 295.998 418.844 296.075C418.414 296.152 417.97 296.059 417.611 295.816C417.251 295.574 417.005 295.203 416.926 294.784C416.847 294.365 416.943 293.932 417.191 293.582C417.306 293.421 420.003 289.673 423.998 289.448C425.276 289.437 426.538 289.722 427.682 290.279C428.825 290.836 429.816 291.649 430.574 292.652C430.859 292.973 431.002 293.391 430.971 293.815C430.94 294.239 430.738 294.633 430.409 294.911C430.209 295.078 429.973 295.199 429.719 295.264Z" fill="#011936"/>
<path d="M404.171 296.369C403.727 296.376 403.296 296.229 402.954 295.953C397.135 291.467 392.515 295.36 392.318 295.52C391.939 295.844 391.449 296.016 390.945 296.001C390.442 295.986 389.963 295.785 389.605 295.44C389.433 295.273 389.299 295.073 389.21 294.853C389.122 294.633 389.081 294.398 389.09 294.161C389.099 293.925 389.159 293.693 389.264 293.481C389.37 293.268 389.52 293.079 389.704 292.925C391.926 291.138 394.732 290.187 397.612 290.243C400.492 290.299 403.256 291.358 405.404 293.229C405.596 293.372 405.756 293.553 405.873 293.759C405.99 293.965 406.063 294.192 406.086 294.426C406.109 294.661 406.082 294.898 406.007 295.122C405.933 295.346 405.811 295.552 405.651 295.728C405.465 295.931 405.236 296.093 404.981 296.203C404.726 296.314 404.45 296.37 404.171 296.369Z" fill="#011936"/>
<path d="M336.372 501.265C336.372 501.265 340.302 470.827 341.962 451.763C343.622 432.699 345.382 390.038 333.742 385.28C322.103 380.522 309.214 384.015 303.131 413.587C297.048 443.16 296.555 510.236 296.555 510.236L336.372 501.265Z" fill="#C0DFA1" stroke="#011936" stroke-linecap="round" stroke-linejoin="round"/>
<path d="M342.8 517.621C342.8 517.621 397.348 555.893 402.593 555.893C407.837 555.893 425.477 549.854 432.629 551.712C439.78 553.57 447.425 567.972 448.855 568.901C450.285 569.831 452.669 572.618 450.285 574.012C447.901 575.405 433.582 569.366 431.198 569.366C429.864 569.4 428.545 569.079 427.384 568.437L421.186 567.043C421.186 567.043 438.35 575.406 439.78 575.87C441.21 576.335 440.273 578.193 435.489 578.193C430.705 578.193 425 575.406 421.663 574.476C418.185 573.105 414.447 572.472 410.698 572.618C404.023 572.618 391.627 566.114 391.627 566.114C391.627 566.114 337.375 549.293 324.93 545.576C312.485 541.86 301.717 532.216 301.24 530.822C300.763 529.428 329.928 518.086 342.8 517.621Z" fill="white" stroke="#011936" stroke-linecap="round" stroke-linejoin="round"/>
<path d="M425.148 559.626C425.148 559.626 443.413 565.409 448.855 568.949" stroke="#011936" stroke-linecap="round" stroke-linejoin="round"/>
<path d="M427.45 554.708C427.45 554.708 437.939 555.845 442.608 560.01" stroke="#011936" stroke-linecap="round" stroke-linejoin="round"/>
<path d="M334.153 490.9C334.153 490.9 301.043 497.132 296.341 500.384C291.639 503.636 292.609 509.259 294.039 512.511C295.47 515.763 295.47 532.023 300.714 535.74C302.358 536.957 335.041 525.984 341.239 524.526C347.437 523.068 348.522 514.529 346.171 506.167C343.82 497.805 343.688 485.79 334.153 490.9Z" fill="#C0DFA1" stroke="#011936" stroke-linecap="round" stroke-linejoin="round"/>
<path d="M488.377 417.801C488.377 417.801 478.841 432.667 478.365 440.581C477.888 448.495 479.795 448.944 483.132 451.266C486.47 453.589 501.726 460.093 511.738 461.023C521.75 461.952 531.285 441.51 531.762 435.006C532.239 428.502 517.459 418.265 506.97 414.084C496.482 409.903 488.853 414.084 488.377 417.801Z" fill="#C0DFA1" stroke="#011936" stroke-linecap="round" stroke-linejoin="round"/>
<path d="M470.194 377.382C470.194 377.382 531.219 427.557 537.894 438.258C544.569 448.96 533.126 458.235 524.545 458.7C515.963 459.164 509.288 450.337 500.707 441.078C492.125 431.818 460.33 382.957 460.33 382.957L470.194 377.382Z" fill="white" stroke="#011936" stroke-linecap="round" stroke-linejoin="round"/>
<path d="M460.725 355.547C460.725 355.547 452.62 378.776 452.62 382.493C452.62 386.209 457.864 388.532 462.632 388.532C467.399 388.532 471.69 382.028 474.551 374.114C477.411 366.2 480.748 356.492 477.411 354.137C474.074 351.782 461.678 353.689 460.725 355.547Z" fill="white" stroke="#011936" stroke-linecap="round" stroke-linejoin="round"/>
<path d="M458.818 362.516L477.411 364.374" stroke="#011936" stroke-linecap="round" stroke-linejoin="round"/>
<path d="M456.911 371.343L474.551 374.13" stroke="#011936" stroke-linecap="round" stroke-linejoin="round"/>
<path d="M454.05 377.847L470.26 381.563" stroke="#011936" stroke-linecap="round" stroke-linejoin="round"/>
<path d="M469.701 348.258C468.63 348.225 467.564 348.113 466.511 347.921C462.78 347.217 454.379 346.031 454.033 349.347C453.59 353.625 454.033 356.829 457.157 356.829H470.95C474.962 356.829 476.293 354.153 475.405 350.949C474.797 348.722 471.591 348.306 469.701 348.258Z" fill="white" stroke="#011936" stroke-linecap="round" stroke-linejoin="round"/>
<path d="M394.57 360.209C394.286 364.198 394.286 368.202 394.57 372.192" stroke="#011936" stroke-miterlimit="10"/>
<path d="M446.816 382.14H432.119C429.964 382.139 427.881 381.383 426.252 380.009C424.622 378.636 423.553 376.737 423.241 374.659L419.838 342.411H459.097L455.71 374.659C455.395 376.738 454.323 378.637 452.691 380.011C451.058 381.384 448.973 382.14 446.816 382.14Z" fill="white" stroke="#011936" stroke-linecap="round" stroke-linejoin="round"/>
<path opacity="0.37" d="M440.339 341.69C439.928 339.735 437.791 337.524 435.654 334.737C431.757 329.675 495.314 332.831 503.058 330.315C510.801 327.8 501.118 327.784 499.77 322.097C498.421 316.41 515.338 322.722 532.189 321.456C549.04 320.191 543.22 315.769 521.816 311.348C500.411 306.926 478.365 313.238 486.157 320.191C493.95 327.144 482.261 324.628 456.319 324.628C430.376 324.628 429.078 329.05 426.496 337.893C426.074 339.315 425.307 340.617 424.261 341.69H440.339Z" fill="white"/>
</svg>
