<svg width="336" height="349" viewBox="0 0 336 349" fill="none" xmlns="http://www.w3.org/2000/svg">
<path d="M145.824 204.186C145.824 204.186 146.368 188.034 145.824 186.038C145.28 184.042 130.274 170.172 130.274 170.172C130.274 170.172 126.181 141.268 119.092 134.749L61.2527 142.12C61.2527 142.12 57.1602 146.091 57.4357 158.872C57.7113 171.652 58.2556 177.571 55.2517 183.239C52.2479 188.907 49.2508 205.631 54.9829 214.132C60.7151 222.634 62.6169 224.602 67.8047 224.33C72.9925 224.058 145.824 204.186 145.824 204.186Z" fill="#C0DFA1"/>
<path opacity="0.7" d="M145.824 204.186C145.824 204.186 146.368 188.034 145.824 186.038C145.28 184.042 130.274 170.172 130.274 170.172C130.274 170.172 126.181 141.268 119.092 134.749L61.2527 142.12C61.2527 142.12 57.1602 146.091 57.4357 158.872C57.7113 171.652 58.2556 177.571 55.2517 183.239C52.2479 188.907 49.2508 205.631 54.9829 214.132C60.7151 222.634 62.6169 224.602 67.8047 224.33C72.9925 224.058 145.824 204.186 145.824 204.186Z" fill="white"/>
<path d="M145.824 186.045L50.8906 205.317C50.8906 205.317 52.7991 226.857 65.8964 224.861C78.9937 222.864 146.375 207.013 146.106 205.596C145.838 204.179 145.824 186.045 145.824 186.045Z" fill="#C0DFA1"/>
<path opacity="0.5" d="M145.824 186.045L50.8906 205.317C50.8906 205.317 52.7991 226.857 65.8964 224.861C78.9937 222.864 146.375 207.013 146.106 205.596C145.838 204.179 145.824 186.045 145.824 186.045Z" fill="white"/>
<path d="M243.351 144.633C243.351 144.633 241.248 204.465 243.351 205.4C245.455 206.336 266.75 199.816 267.651 198.232C268.551 196.648 272.449 138.406 267.651 138.406C262.853 138.406 243.351 144.633 243.351 144.633Z" fill="#C0DFA1"/>
<path d="M241.248 144.947C243.049 146.196 241.55 201.659 237.948 206.022C234.347 210.384 206.445 215.996 205.847 212.876C205.249 209.756 206.149 132.173 206.149 132.173C206.149 132.173 239.447 143.704 241.248 144.947ZM267.651 138.406C267.651 138.406 238.251 125.005 233.446 125.319C228.641 125.633 202.85 129.989 206.149 133.73C209.449 137.471 238.849 144.325 243.351 144.633C247.854 144.94 267.651 138.406 267.651 138.406Z" fill="#C0DFA1"/>
<path opacity="0.5" d="M243.351 144.633C243.351 144.633 241.248 204.465 243.351 205.4C245.455 206.336 266.75 199.816 267.651 198.232C268.551 196.648 272.449 138.406 267.651 138.406C262.853 138.406 243.351 144.633 243.351 144.633Z" fill="white"/>
<path opacity="0.7" d="M241.248 144.947C243.049 146.196 241.55 201.659 237.948 206.022C234.347 210.384 206.445 215.996 205.847 212.876C205.249 209.756 206.149 132.173 206.149 132.173C206.149 132.173 239.447 143.704 241.248 144.947ZM267.651 138.406C267.651 138.406 238.251 125.005 233.446 125.319C228.641 125.633 202.85 129.989 206.149 133.73C209.449 137.471 238.849 144.325 243.351 144.633C247.854 144.94 267.651 138.406 267.651 138.406Z" fill="white"/>
<path d="M64.1089 141.694C64.1089 141.694 100.8 135.412 119.616 134.714C126.336 141.694 128.251 160.359 129.931 169.433C129.931 169.433 145.824 185.068 145.824 186.366C145.824 187.664 146.274 207.306 146.274 207.306" stroke="#011936" stroke-linecap="round" stroke-linejoin="round"/>
<path d="M56.1052 182.541L98.5555 175.372L129.185 169.432" stroke="#011936" stroke-linecap="round" stroke-linejoin="round"/>
<path d="M50.5881 204.933L141.913 186.799" stroke="#011936" stroke-linecap="round" stroke-linejoin="round"/>
<path d="M81.312 178.339C81.312 178.339 96.096 193.695 95.76 195.789L95.088 217.776" stroke="#011936" stroke-linecap="round" stroke-linejoin="round"/>
<path d="M63.9678 225.252L140.912 207.795" stroke="#011936" stroke-linecap="round" stroke-linejoin="round"/>
<path d="M206.64 173.453V132.62L240.912 144.835V200.675" stroke="#011936" stroke-linecap="round" stroke-linejoin="round"/>
<path d="M206.304 177.062V215.682" stroke="#011936" stroke-linecap="round" stroke-linejoin="round"/>
<path d="M240.912 144.835L268.464 137.855V195.44" stroke="#011936" stroke-linecap="round" stroke-linejoin="round"/>
<path d="M206.64 132.62L236.208 125.989L268.464 137.855L240.912 144.835L206.64 132.62Z" stroke="#011936" stroke-linecap="round" stroke-linejoin="round"/>
<path d="M222.768 138.553V209.17" stroke="#011936" stroke-linecap="round" stroke-linejoin="round"/>
<path d="M226.847 171.303C226.847 172.601 226.296 173.655 225.624 173.655C224.952 173.655 224.401 172.601 224.401 171.303C224.401 170.005 224.945 168.951 225.624 168.951C226.303 168.951 226.847 170.005 226.847 171.303Z" fill="#011936"/>
<path d="M221.088 169.125C221.088 170.431 220.544 171.485 219.865 171.485C219.186 171.485 218.649 170.431 218.649 169.125C218.649 167.82 219.193 166.773 219.865 166.773C220.537 166.773 221.088 167.827 221.088 169.125Z" fill="#011936"/>
<path d="M146.274 191.482L195.102 217.078" stroke="#011936" stroke-linecap="round" stroke-linejoin="round"/>
<path d="M241.98 108.63C241.015 109.794 240.364 111.203 240.092 112.713L236.295 114.926V104.456L236.369 104.56L242.417 99.9676C244.592 100.31 246.815 99.9523 248.788 98.9415C251.892 97.2035 254.164 91.2635 254.164 91.2635C254.164 91.2635 246.772 90.398 244.259 93.6227C242.885 95.295 242.153 97.4347 242.202 99.6325L236.302 104.121V96.4078C237.408 95.8761 238.386 95.0944 239.164 94.1199C239.942 93.1453 240.5 92.0024 240.798 90.7749C241.873 86.4403 236.141 77.8828 236.141 77.8828C236.141 77.8828 230.173 86.6846 231.37 91.1448C231.648 92.3433 232.208 93.4513 232.999 94.3698C233.791 95.2883 234.79 95.9885 235.906 96.4078V113.16L231.645 109.474C231.736 108.307 231.587 107.133 231.21 106.03C230.832 104.927 230.234 103.919 229.454 103.074C226.592 99.7233 218.951 99.9745 218.951 99.9745C218.951 99.9745 222.177 106.668 224.918 108.902C227.317 110.849 230.63 110.054 231.43 109.823L235.906 113.697V118.786H229.253L231.941 136.41H240.106L242.794 118.786H236.268V115.421L240.442 112.992C242.606 113.639 244.922 113.463 246.973 112.497C250.333 110.759 253.055 107.038 253.055 107.038C253.055 107.038 245.085 104.909 241.98 108.63Z" fill="#011936"/>
<path d="M184.672 242.904L155.339 251.824C155.199 251.868 155.072 251.95 154.973 252.062C154.874 252.174 154.806 252.313 154.777 252.462C154.748 252.611 154.759 252.766 154.808 252.91C154.858 253.053 154.944 253.18 155.057 253.276L165.984 262.56C166.622 263.104 167.382 263.473 168.194 263.631C169.005 263.79 169.842 263.733 170.627 263.467L197.507 254.337C197.637 254.289 197.753 254.207 197.843 254.099C197.933 253.991 197.996 253.861 198.024 253.721C198.052 253.581 198.046 253.436 198.005 253.3C197.964 253.163 197.89 253.04 197.79 252.941L187.488 243.518C187.106 243.178 186.648 242.944 186.156 242.836C185.664 242.729 185.153 242.752 184.672 242.904Z" fill="#011936"/>
<path d="M170.386 243.407C169.598 243.746 168.894 244.265 168.327 244.926C167.759 245.587 167.343 246.373 167.108 247.224C166.874 248.075 166.827 248.971 166.972 249.844C167.118 250.716 167.45 251.544 167.946 252.264L168 252.348C169.976 255.014 179.847 256.445 184.383 255.217C188.919 253.988 189.598 250.603 186.749 248.041C185.008 246.478 178.685 242.918 173.92 242.716C172.706 242.658 171.496 242.895 170.386 243.407Z" fill="white" stroke="#011936" stroke-linecap="round" stroke-linejoin="round"/>
<path d="M215.04 257.911L193.67 238.528C193.43 238.309 193.25 238.028 193.15 237.713C193.05 237.398 193.034 237.06 193.102 236.736C193.171 236.412 193.323 236.113 193.541 235.871C193.759 235.629 194.036 235.452 194.342 235.359L237.673 222.885C238.665 222.6 239.709 222.569 240.715 222.793C241.722 223.018 242.661 223.493 243.452 224.177L264.432 242.206L215.04 257.911Z" fill="#C0DFA1" stroke="#011936" stroke-linecap="round" stroke-linejoin="round"/>
<path d="M237.989 240.021L239.682 241.557L243.351 240.559L241.638 239.002L237.989 240.021Z" fill="#011936"/>
<path d="M230.039 232.797L233.728 231.813L232.082 230.312L228.406 231.31L230.039 232.797Z" fill="#011936"/>
<path d="M232.868 230.103L234.521 231.603L238.21 230.626L236.544 229.112L232.868 230.103Z" fill="#011936"/>
<path d="M239.615 230.975L241.382 232.581L244.715 231.694L242.874 230.11L239.615 230.975Z" fill="#011936"/>
<path d="M242.001 233.139L243.768 234.751L247.202 233.837L245.354 232.246L242.001 233.139Z" fill="#011936"/>
<path d="M250.36 236.566L246.846 237.543L248.586 239.128L252.188 238.144L250.36 236.566Z" fill="#011936"/>
<path d="M246.066 237.767L242.417 238.786L244.131 240.342L247.8 239.337L246.066 237.767Z" fill="#011936"/>
<path d="M244.38 235.31L246.241 236.992L249.729 236.022L247.84 234.388L244.38 235.31Z" fill="#011936"/>
<path d="M236.907 233.774L240.596 232.79L238.822 231.185L235.133 232.162L236.907 233.774Z" fill="#011936"/>
<path d="M223.319 243.4L221.195 241.466L217.506 242.443L219.677 244.419L223.319 243.4Z" fill="#011936"/>
<path d="M220.584 240.908L218.81 239.295L215.121 240.28L216.888 241.885L220.584 240.908Z" fill="#011936"/>
<path d="M218.198 238.744L216.424 237.132L212.735 238.109L214.509 239.721L218.198 238.744Z" fill="#011936"/>
<path d="M225.563 233.984L229.253 233.006L227.62 231.52L223.944 232.518L225.563 233.984Z" fill="#011936"/>
<path d="M225.55 245.424L223.93 243.951L220.281 244.97L221.881 246.422L225.55 245.424Z" fill="#011936"/>
<path d="M221.081 235.177L224.77 234.193L223.158 232.727L219.482 233.718L221.081 235.177Z" fill="#011936"/>
<path d="M216.599 236.364L220.295 235.387L218.696 233.935L215.02 234.926L216.599 236.364Z" fill="#011936"/>
<path d="M212.124 237.55L215.813 236.573L214.234 235.142L210.558 236.133L212.124 237.55Z" fill="#011936"/>
<path d="M230.946 238.877L232.955 240.705L236.604 239.686L234.635 237.892L230.946 238.877Z" fill="#011936"/>
<path d="M230.657 233.355L232.425 234.961L236.114 233.984L234.347 232.371L230.657 233.355Z" fill="#011936"/>
<path d="M243.963 241.11L240.294 242.115L242.169 243.818L245.811 242.792L243.963 241.11Z" fill="#011936"/>
<path d="M234.81 237.132L238.499 236.147L236.725 234.542L233.036 235.519L234.81 237.132Z" fill="#011936"/>
<path d="M227.942 236.154L231.638 235.17L229.864 233.565L226.175 234.542L227.942 236.154Z" fill="#011936"/>
<path d="M237.518 234.333L239.286 235.938L242.982 234.961L241.208 233.348L237.518 234.333Z" fill="#011936"/>
<path d="M228.124 247.762L226.162 245.975L222.492 246.98L224.482 248.788L228.124 247.762Z" fill="#011936"/>
<path d="M239.111 236.706L235.422 237.683L237.384 239.47L241.033 238.451L239.111 236.706Z" fill="#011936"/>
<path d="M243.593 235.519L239.904 236.496L241.812 238.234L245.461 237.215L243.593 235.519Z" fill="#011936"/>
<path d="M223.467 237.341L227.156 236.364L225.382 234.751L221.693 235.736L223.467 237.341Z" fill="#011936"/>
<path d="M235.059 243.546L231.39 244.544L233.325 246.303L236.967 245.277L235.059 243.546Z" fill="#011936"/>
<path d="M239.508 242.325L235.845 243.33L237.747 245.061L241.389 244.035L239.508 242.325Z" fill="#011936"/>
<path d="M218.985 238.535L222.674 237.55L220.906 235.938L217.217 236.922L218.985 238.535Z" fill="#011936"/>
<path d="M232.546 246.52L230.61 244.761L226.941 245.766L228.903 247.546L232.546 246.52Z" fill="#011936"/>
<path d="M237.209 240.238L233.56 241.257L235.234 242.771L238.896 241.773L237.209 240.238Z" fill="#011936"/>
<path d="M225.059 239.721L223.292 238.109L219.603 239.086L221.37 240.698L225.059 239.721Z" fill="#011936"/>
<path d="M227.747 242.164L225.671 240.273L221.982 241.257L224.099 243.183L227.747 242.164Z" fill="#011936"/>
<path d="M229.999 244.209L228.359 242.716L224.71 243.735L226.33 245.207L229.999 244.209Z" fill="#011936"/>
<path d="M212.412 243.078L211.62 243.288L212.238 243.846L213.024 243.637L212.412 243.078Z" fill="#011936"/>
<path d="M218.897 244.635L216.713 242.653L213.024 243.637L215.248 245.654L218.897 244.635Z" fill="#011936"/>
<path d="M221.095 246.638L219.502 245.186L215.853 246.206L217.432 247.643L221.095 246.638Z" fill="#011936"/>
<path d="M232.176 240.922L230.153 239.086L226.464 240.063L228.527 241.941L232.176 240.922Z" fill="#011936"/>
<path d="M215.248 245.654L214.469 245.87L215.074 246.422L215.853 246.206L215.248 245.654Z" fill="#011936"/>
<path d="M216.102 242.094L214.328 240.489L210.638 241.466L212.412 243.078L216.102 242.094Z" fill="#011936"/>
<path d="M234.447 242.988L232.781 241.473L229.139 242.499L230.785 243.993L234.447 242.988Z" fill="#011936"/>
<path d="M210.027 240.908L209.241 241.117L209.852 241.675L210.638 241.466L210.027 240.908Z" fill="#011936"/>
<path d="M225.852 239.505L229.542 238.528L227.768 236.922L224.078 237.899L225.852 239.505Z" fill="#011936"/>
<path d="M226.114 251.196L224.313 249.556L220.671 250.582L222.573 252.313L226.114 251.196Z" fill="#011936"/>
<path d="M219.892 250.798L216.149 251.852L218.205 253.688L221.814 252.55L219.892 250.798Z" fill="#011936"/>
<path d="M251.617 241.885L252.679 242.848L256.314 241.703L255.32 240.845L251.617 241.885Z" fill="#011936"/>
<path d="M220.06 250.031L219.28 250.247L219.892 250.798L220.671 250.582L220.06 250.031Z" fill="#011936"/>
<path d="M232.25 235.729L228.561 236.713L230.328 238.318L234.017 237.341L232.25 235.729Z" fill="#011936"/>
<path d="M217.432 247.643L216.646 247.853L217.257 248.411L218.044 248.195L217.432 247.643Z" fill="#011936"/>
<path d="M213.716 239.931L211.949 238.318L208.253 239.302L210.027 240.908L213.716 239.931Z" fill="#011936"/>
<path d="M223.702 249.005L221.706 247.19L218.044 248.195L220.06 250.031L223.702 249.005Z" fill="#011936"/>
<path d="M201.304 238.632L202.85 240.014L206.855 238.953L205.309 237.55L201.304 238.632Z" fill="#011936"/>
<path d="M244.742 240.894L246.59 242.576L250.233 241.55L248.411 239.896L244.742 240.894Z" fill="#011936"/>
<path d="M246.416 243.344L242.773 244.37L244.077 245.549L247.618 244.433L246.416 243.344Z" fill="#011936"/>
<path d="M250.837 242.101L247.195 243.127L248.378 244.195L251.919 243.086L250.837 242.101Z" fill="#011936"/>
<path d="M252.82 238.688L249.191 239.679L251.012 241.334L254.688 240.3L252.82 238.688Z" fill="#011936"/>
<path d="M207.641 238.744L206.855 238.953L207.467 239.512L208.253 239.302L207.641 238.744Z" fill="#011936"/>
<path d="M233.157 247.071L229.515 248.097L231.175 249.612L234.716 248.495L233.157 247.071Z" fill="#011936"/>
<path d="M238.997 230.417L242.236 229.558L240.482 228.044L237.33 228.895L238.997 230.417Z" fill="#011936"/>
<path d="M242.001 244.586L238.352 245.612L239.776 246.904L243.318 245.787L242.001 244.586Z" fill="#011936"/>
<path d="M237.579 245.829L233.937 246.855L235.475 248.258L239.017 247.141L237.579 245.829Z" fill="#011936"/>
<path d="M213.447 249.451L215.53 251.301L219.28 250.247L217.257 248.411L213.447 249.451Z" fill="#011936"/>
<path d="M209.771 236.343L206.096 237.341L207.641 238.744L211.33 237.76L209.771 236.343Z" fill="#011936"/>
<path d="M203.475 240.573L205.276 242.171L209.241 241.117L207.467 239.512L203.475 240.573Z" fill="#011936"/>
<path d="M230.415 249.849L228.735 248.314L225.093 249.34L226.874 250.959L230.415 249.849Z" fill="#011936"/>
<path d="M211.25 247.49L212.829 248.9L216.646 247.853L215.074 246.422L211.25 247.49Z" fill="#011936"/>
<path d="M208.32 244.886L210.632 246.945L214.469 245.871L212.238 243.846L208.32 244.886Z" fill="#011936"/>
<path d="M205.901 242.729L207.695 244.328L211.619 243.288L209.852 241.676L205.901 242.729Z" fill="#011936"/>
<path d="M227.889 220.798L215.04 257.911L264.432 242.206L280.163 206.329C280.288 206.042 280.331 205.725 280.289 205.414C280.246 205.103 280.119 204.811 279.922 204.572C279.725 204.334 279.467 204.158 279.178 204.066C278.889 203.974 278.58 203.97 278.289 204.053L231.45 217.378C230.636 217.61 229.887 218.041 229.267 218.637C228.647 219.232 228.175 219.973 227.889 220.798Z" fill="#C0DFA1" stroke="#011936" stroke-linecap="round" stroke-linejoin="round"/>
<path d="M253.7 227.674C254.372 229.272 253.21 231.296 251.153 232.19C249.097 233.083 246.913 232.511 246.268 230.912C245.623 229.314 246.758 227.29 248.815 226.396C250.871 225.503 253.055 226.075 253.7 227.674Z" fill="#011936"/>
<path d="M131.779 256.124L95.9414 264.856L117.781 300.391L155.581 292.35L131.779 256.124Z" fill="white" stroke="#011936" stroke-linecap="round" stroke-linejoin="round"/>
<path d="M107.52 257.562L133.728 291.415L169.344 279.549L140.448 248.488L107.52 257.562Z" fill="white" stroke="#011936" stroke-linecap="round" stroke-linejoin="round"/>
<path d="M117.304 262.567L139.978 255.601" stroke="#011936" stroke-linecap="round" stroke-linejoin="round"/>
<path d="M120.792 265.826L143.465 258.86" stroke="#011936" stroke-linecap="round" stroke-linejoin="round"/>
<path d="M124.28 269.086L146.953 262.12" stroke="#011936" stroke-linecap="round" stroke-linejoin="round"/>
<path d="M127.767 272.346L150.447 265.387" stroke="#011936" stroke-linecap="round" stroke-linejoin="round"/>
<path d="M131.255 275.612L153.935 268.646" stroke="#011936" stroke-linecap="round" stroke-linejoin="round"/>
<path d="M134.743 278.872L157.423 271.906" stroke="#011936" stroke-linecap="round" stroke-linejoin="round"/>
<path d="M138.237 282.132L160.91 275.166" stroke="#011936" stroke-linecap="round" stroke-linejoin="round"/>
<path d="M149.52 157.399L101.808 168.218C101.808 168.218 104.16 207.306 108.192 223.36C108.192 223.36 112.392 238.814 114.784 243.602L159.775 231.345C159.775 231.345 153.216 213.239 149.52 157.399Z" fill="#011936" stroke="#011936" stroke-linecap="round" stroke-linejoin="round"/>
<path d="M183.06 163.011C179.35 159.57 174.868 160.379 170.386 158.558C167.202 157.338 163.95 156.319 160.648 155.507L159.862 155.319C159.862 155.319 157.913 151.068 154.406 151.675C150.898 152.283 136.282 162.634 135.112 165.426C133.943 168.218 133.943 195.189 134.138 204.514C134.266 210.852 135.482 215.87 137.726 219.333L134.178 238.486L183.839 224.756C183.839 224.756 180.446 222.941 180.325 212.611C180.325 210.615 181.104 205.324 182.085 199.251C182.676 195.231 182.872 191.16 182.67 187.099C184.403 187.729 186.096 188.476 187.737 189.333C190.465 190.729 206.64 197.632 206.64 197.632L211.344 188.725C211.344 188.725 186.762 166.452 183.06 163.011Z" fill="#C0DFA1" stroke="#011936" stroke-linecap="round" stroke-linejoin="round"/>
<path d="M60.2583 258.49L286.608 197.185" stroke="#011936" stroke-linecap="round" stroke-linejoin="round"/>
<path d="M138.573 202.581C138.573 202.581 143.082 191.566 145.199 182.206" stroke="#011936" stroke-linecap="round" stroke-linejoin="round"/>
<path d="M136.987 205.91C136.987 205.91 145.199 197.373 147.585 188.837" stroke="#011936" stroke-linecap="round" stroke-linejoin="round"/>
<path d="M160.561 213.881C160.561 213.881 168.585 209.533 172.072 205.547" stroke="#011936" stroke-linecap="round" stroke-linejoin="round"/>
<path d="M146.362 164.386C146.362 164.386 146.805 164.428 148.378 167.667C149.95 170.905 151.872 176.168 151.872 176.168L155.38 172.525L158.693 177.18" stroke="#011936" stroke-linecap="round" stroke-linejoin="round"/>
<path d="M167.18 160.058C167.18 160.058 168.632 161.796 169.801 165.642C170.97 169.488 170.97 170.298 170.97 170.298L166.266 169.286L165.487 176.168" stroke="#011936" stroke-linecap="round" stroke-linejoin="round"/>
<path d="M181.89 175.359L182.663 187.106L184.424 172.12" stroke="#011936" stroke-linecap="round" stroke-linejoin="round"/>
<path d="M162.698 151.529L161.28 156.945C162.664 159.89 163.658 163.015 164.237 166.236C165.426 173.034 164.176 186.478 164.176 186.478C164.176 186.478 158.666 173.83 155.481 167.806C152.295 161.782 151.126 158.767 150.837 155.759C150.548 152.75 152.578 144.919 153.156 144.011C153.734 143.104 162.698 151.529 162.698 151.529Z" fill="white" stroke="#011936" stroke-linecap="round" stroke-linejoin="round"/>
<path d="M173.719 103.946C170.481 101.099 166.566 99.2079 162.383 98.4711C158.2 97.7344 153.904 98.1789 149.943 99.7582C136.026 105.147 135.744 122.01 135.744 131.65C135.744 141.289 131.88 157.064 124.636 164.288C117.392 171.513 114.556 179.232 116.317 187.364C118.077 195.496 125.301 200.312 130.523 199.712C135.744 199.111 132.539 175.017 137.774 170.2C143.008 165.384 149.661 161.126 154.009 147.613C156.499 144.361 158.19 140.528 158.935 136.445C160.097 129.821 164.445 119.281 169.082 118.381C173.719 117.48 175.177 131.929 173.437 137.352C171.696 142.776 162.994 149.1 162.685 151.508C162.387 153.361 161.903 155.176 161.24 156.924C161.24 156.924 166.28 160.156 175.157 161.112C176.406 161.276 177.671 161.276 178.92 161.112C178.92 161.112 181.003 159.319 186.816 149.372C192.528 139.6 187.145 115.31 180.768 109.586C174.391 103.862 173.719 103.946 173.719 103.946Z" fill="#011936" stroke="#011936" stroke-linecap="round" stroke-linejoin="round"/>
<path d="M126.403 167.276C125.463 167.83 124.491 168.324 123.494 168.755" stroke="white" stroke-linecap="round" stroke-linejoin="round"/>
<path d="M123.93 165.189C123.93 165.189 115.866 169.851 116.108 182.38C116.316 187.503 118.275 192.38 121.632 196.138" stroke="white" stroke-linecap="round" stroke-linejoin="round"/>
<path d="M145.878 120.426C142.807 132.829 141.53 148.639 137.317 156.513C135.457 159.821 132.936 162.677 129.925 164.889" stroke="white" stroke-linecap="round" stroke-linejoin="round"/>
<path d="M174.935 113.676C174.935 113.676 175.607 109.914 171.306 106.145C167.214 102.564 151.852 104.749 147.235 115.875" stroke="white" stroke-linecap="round" stroke-linejoin="round"/>
<path d="M163.061 99.814C159.709 98.5535 156.027 98.6281 152.726 100.023C148.712 101.598 145.204 104.309 142.601 107.85C139.997 111.391 138.401 115.62 137.995 120.056C137.088 128.53 138.224 141.694 134.595 149.944" stroke="white" stroke-linecap="round" stroke-linejoin="round"/>
<path d="M168.813 103.304C168.098 102.629 167.322 102.028 166.495 101.51" stroke="white" stroke-linecap="round" stroke-linejoin="round"/>
<path d="M186.715 147.104C186.944 145.93 187.107 144.744 187.206 143.551" stroke="white" stroke-linecap="round" stroke-linejoin="round"/>
<path d="M187.307 140.298C186.964 125.689 176.292 116.747 176.292 116.747" stroke="white" stroke-linecap="round" stroke-linejoin="round"/>
<path d="M174.586 115.687C174.586 115.687 179.518 126.855 177.2 135.566C174.881 144.277 169.949 151.529 166.448 153.337C162.947 155.144 153.982 147.613 153.982 147.613C153.982 147.613 156.878 140.989 156.878 134.058C156.878 127.127 159.204 118.702 164.418 115.994C165.997 115.202 167.718 114.765 169.47 114.712C171.223 114.659 172.966 114.991 174.586 115.687Z" fill="white" stroke="#011936" stroke-linecap="round" stroke-linejoin="round"/>
<path d="M168.672 133.318C168.514 134.603 168.606 135.909 168.941 137.157C169.499 138.755 170.896 139.768 169.781 140.061C168.717 140.235 167.637 140.285 166.562 140.207" stroke="#011936" stroke-linecap="round" stroke-linejoin="round"/>
<path d="M164.828 144.8C165.825 145.385 166.988 145.588 168.114 145.372" stroke="#011936" stroke-linecap="round" stroke-linejoin="round"/>
<path d="M163.901 133.367C163.901 134.17 163.558 134.819 163.135 134.819C162.711 134.819 162.362 134.17 162.362 133.367C162.362 132.564 162.705 131.915 163.135 131.915C163.565 131.915 163.901 132.564 163.901 133.367Z" fill="#011936"/>
<path d="M173.497 132.913C173.497 133.709 173.154 134.365 172.731 134.365C172.308 134.365 171.958 133.709 171.958 132.913C171.958 132.117 172.308 131.461 172.731 131.461C173.154 131.461 173.497 132.11 173.497 132.913Z" fill="#011936"/>
<path d="M175.647 128.648C175.527 128.68 175.401 128.677 175.282 128.639C175.163 128.601 175.057 128.529 174.975 128.432C174.796 128.161 174.559 127.937 174.283 127.777C174.007 127.617 173.699 127.526 173.383 127.511C172.673 127.661 172.047 128.091 171.636 128.711C171.534 128.864 171.378 128.968 171.202 129.002C171.027 129.035 170.845 128.995 170.698 128.889C170.551 128.784 170.45 128.622 170.418 128.439C170.386 128.257 170.425 128.068 170.527 127.915C170.574 127.846 171.676 126.212 173.309 126.115C173.831 126.11 174.347 126.234 174.815 126.476C175.282 126.719 175.687 127.074 175.997 127.511C176.114 127.65 176.172 127.833 176.159 128.017C176.147 128.202 176.064 128.374 175.93 128.495C175.848 128.567 175.751 128.62 175.647 128.648Z" fill="#011936"/>
<path d="M165.205 129.13C165.023 129.133 164.847 129.069 164.707 128.949C162.328 126.994 160.44 128.69 160.359 128.76C160.205 128.901 160.004 128.976 159.798 128.97C159.593 128.963 159.397 128.876 159.251 128.725C159.18 128.652 159.125 128.565 159.089 128.469C159.053 128.374 159.036 128.271 159.04 128.168C159.044 128.065 159.068 127.964 159.111 127.871C159.154 127.779 159.216 127.696 159.291 127.629C160.199 126.851 161.346 126.436 162.523 126.461C163.701 126.485 164.831 126.947 165.709 127.762C165.787 127.824 165.852 127.903 165.9 127.993C165.948 128.082 165.978 128.181 165.987 128.284C165.997 128.386 165.986 128.489 165.955 128.586C165.925 128.684 165.875 128.774 165.809 128.851C165.733 128.939 165.64 129.01 165.536 129.058C165.432 129.106 165.319 129.131 165.205 129.13Z" fill="#011936"/>
<path d="M137.491 218.404C137.491 218.404 139.097 205.142 139.776 196.836C140.455 188.53 141.174 169.942 136.416 167.869C131.658 165.796 126.39 167.318 123.903 180.203C121.417 193.088 121.215 222.313 121.215 222.313L137.491 218.404Z" fill="#C0DFA1" stroke="#011936" stroke-linecap="round" stroke-linejoin="round"/>
<path d="M140.119 225.531C140.119 225.531 162.416 242.206 164.559 242.206C166.703 242.206 173.914 239.575 176.837 240.384C179.76 241.194 182.885 247.469 183.47 247.874C184.054 248.279 185.029 249.493 184.054 250.1C183.08 250.708 177.227 248.076 176.252 248.076C175.707 248.091 175.168 247.951 174.693 247.671L172.16 247.064C172.16 247.064 179.175 250.708 179.76 250.91C180.345 251.112 179.962 251.922 178.006 251.922C176.051 251.922 173.719 250.708 172.355 250.303C170.933 249.705 169.405 249.429 167.872 249.493C165.144 249.493 160.077 246.659 160.077 246.659C160.077 246.659 137.901 239.33 132.814 237.711C127.727 236.092 123.326 231.89 123.131 231.282C122.936 230.675 134.857 225.733 140.119 225.531Z" fill="white" stroke="#011936" stroke-linecap="round" stroke-linejoin="round"/>
<path d="M173.779 243.832C173.779 243.832 181.245 246.352 183.47 247.895" stroke="#011936" stroke-linecap="round" stroke-linejoin="round"/>
<path d="M174.72 241.689C174.72 241.689 179.007 242.185 180.916 244" stroke="#011936" stroke-linecap="round" stroke-linejoin="round"/>
<path d="M136.584 213.888C136.584 213.888 123.05 216.603 121.128 218.02C119.206 219.437 119.603 221.887 120.187 223.304C120.772 224.721 120.772 231.806 122.916 233.425C123.588 233.956 136.947 229.174 139.48 228.539C142.014 227.904 142.457 224.184 141.496 220.54C140.535 216.897 140.482 211.662 136.584 213.888Z" fill="#C0DFA1" stroke="#011936" stroke-linecap="round" stroke-linejoin="round"/>
<path d="M199.624 182.038C199.624 182.038 195.727 188.516 195.532 191.964C195.337 195.412 196.117 195.608 197.481 196.62C198.845 197.632 205.081 200.466 209.174 200.87C213.266 201.275 217.164 192.369 217.359 189.535C217.553 186.701 211.512 182.241 207.225 180.419C202.937 178.597 199.819 180.419 199.624 182.038Z" fill="#C0DFA1" stroke="#011936" stroke-linecap="round" stroke-linejoin="round"/>
<path d="M192.192 164.428C192.192 164.428 217.137 186.289 219.865 190.952C222.593 195.614 217.916 199.656 214.408 199.858C210.901 200.061 208.172 196.215 204.664 192.18C201.157 188.146 188.16 166.857 188.16 166.857L192.192 164.428Z" fill="white" stroke="#011936" stroke-linecap="round" stroke-linejoin="round"/>
<path d="M188.321 154.914C188.321 154.914 185.008 165.035 185.008 166.654C185.008 168.274 187.152 169.286 189.101 169.286C191.05 169.286 192.804 166.452 193.973 163.004C195.142 159.556 196.506 155.326 195.142 154.3C193.778 153.274 188.711 154.104 188.321 154.914Z" fill="white" stroke="#011936" stroke-linecap="round" stroke-linejoin="round"/>
<path d="M187.542 157.95L195.142 158.76" stroke="#011936" stroke-linecap="round" stroke-linejoin="round"/>
<path d="M186.762 161.796L193.973 163.011" stroke="#011936" stroke-linecap="round" stroke-linejoin="round"/>
<path d="M185.593 164.63L192.219 166.25" stroke="#011936" stroke-linecap="round" stroke-linejoin="round"/>
<path d="M191.99 151.738C191.553 151.724 191.117 151.675 190.687 151.592C189.161 151.285 185.727 150.768 185.586 152.213C185.405 154.077 185.586 155.473 186.863 155.473H192.501C194.141 155.473 194.685 154.307 194.322 152.911C194.074 151.941 192.763 151.759 191.99 151.738Z" fill="white" stroke="#011936" stroke-linecap="round" stroke-linejoin="round"/>
<path d="M161.28 156.945C161.164 158.684 161.164 160.428 161.28 162.166" stroke="#011936" stroke-miterlimit="10"/>
<path d="M182.636 166.501H176.628C175.748 166.5 174.896 166.171 174.23 165.572C173.564 164.974 173.127 164.147 173 163.241L171.609 149.191H187.656L186.272 163.241C186.143 164.147 185.705 164.975 185.037 165.573C184.37 166.171 183.518 166.501 182.636 166.501Z" fill="white" stroke="#011936" stroke-linecap="round" stroke-linejoin="round"/>
<path opacity="0.37" d="M179.989 148.876C179.821 148.025 178.947 147.062 178.073 145.847C176.481 143.641 202.46 145.016 205.625 143.921C208.79 142.825 204.832 142.818 204.281 140.34C203.73 137.862 210.645 140.612 217.533 140.061C224.421 139.509 222.042 137.583 213.293 135.656C204.543 133.73 195.532 136.48 198.717 139.509C201.902 142.539 197.125 141.443 186.52 141.443C175.916 141.443 175.385 143.369 174.33 147.222C174.158 147.842 173.844 148.409 173.416 148.876H179.989Z" fill="white"/>
</svg>
