<svg width="112" height="30" viewBox="0 0 112 30" fill="none" xmlns="http://www.w3.org/2000/svg">
<rect x="3.35999" width="108.64" height="30" rx="10" fill="#27414B"/>
<path d="M0 15L3.36 11L3.36 19L0 15Z" fill="#27414B"/>
<path d="M14.64 19.088C14.416 19.088 14.2053 19.0533 14.008 18.984C13.816 18.9147 13.6027 18.8027 13.368 18.648C13.3627 18.6427 13.3547 18.64 13.344 18.64C13.3227 18.64 13.296 18.6533 13.264 18.68C13.2373 18.7013 13.216 18.7227 13.2 18.744L13.08 18.656L13.832 17.552L13.96 17.64C13.928 17.6827 13.912 17.7307 13.912 17.784C13.912 17.8107 13.92 17.832 13.936 17.848C14.0587 17.9387 14.16 17.9973 14.24 18.024C14.32 18.0507 14.424 18.064 14.552 18.064C14.712 18.064 14.8507 17.9947 14.968 17.856C15.0907 17.7173 15.152 17.5253 15.152 17.28V13.24C15.152 13.2133 15.1307 13.192 15.088 13.176C15.0453 13.16 15.0053 13.152 14.968 13.152V13H16.384V13.152C16.3467 13.152 16.3067 13.16 16.264 13.176C16.2213 13.192 16.2 13.2133 16.2 13.24V17.312C16.2 17.8827 16.0613 18.3227 15.784 18.632C15.512 18.936 15.1307 19.088 14.64 19.088ZM19.9093 19.088C19.4186 19.088 18.9813 18.9867 18.5973 18.784C18.2133 18.5813 17.9146 18.288 17.7013 17.904C17.4879 17.5147 17.3813 17.0587 17.3813 16.536V13.24C17.3813 13.2133 17.3573 13.192 17.3092 13.176C17.2666 13.16 17.2239 13.152 17.1813 13.152V13H18.7253V13.152C18.6826 13.152 18.6373 13.16 18.5893 13.176C18.5466 13.192 18.5253 13.2133 18.5253 13.24V16.296C18.5253 16.872 18.6399 17.3147 18.8693 17.624C19.1039 17.9333 19.4506 18.088 19.9093 18.088C20.4106 18.088 20.7439 17.928 20.9093 17.608C21.0799 17.288 21.1653 16.872 21.1653 16.36V13.24C21.1653 13.2133 21.1413 13.192 21.0933 13.176C21.0506 13.16 21.0079 13.152 20.9653 13.152V13H22.5173V13.152C22.4746 13.152 22.4293 13.16 22.3813 13.176C22.3386 13.192 22.3173 13.2133 22.3173 13.24V16.392C22.3173 17.24 22.1226 17.9013 21.7333 18.376C21.3493 18.8507 20.7413 19.088 19.9093 19.088ZM28.7221 13.152C28.6847 13.152 28.6447 13.16 28.6021 13.176C28.5594 13.192 28.5381 13.2133 28.5381 13.24V18.76C28.5381 18.7867 28.5567 18.808 28.5941 18.824C28.6367 18.84 28.6767 18.848 28.7141 18.848V19H27.3061V18.848C27.4341 18.848 27.4741 18.8133 27.4261 18.744L24.5861 14.824V18.76C24.5861 18.7867 24.6074 18.808 24.6501 18.824C24.6927 18.84 24.7354 18.848 24.7781 18.848V19H23.3141V18.848C23.3567 18.848 23.3994 18.84 23.4421 18.824C23.4847 18.808 23.5061 18.7867 23.5061 18.76V13.24C23.5061 13.2133 23.4847 13.192 23.4421 13.176C23.4047 13.16 23.3674 13.152 23.3301 13.152V13H24.7781V13.152C24.6501 13.152 24.6101 13.1867 24.6581 13.256L27.5781 17.304L27.4741 13.24C27.4741 13.2133 27.4501 13.192 27.4021 13.176C27.3594 13.16 27.3194 13.152 27.2821 13.152V13H28.7221V13.152ZM36.2072 17.872V19.168H36.0552C36.0552 19.1307 36.0472 19.0933 36.0312 19.056C36.0152 19.0187 35.9939 19 35.9672 19H31.8952V18.752L34.2712 16.16C34.5005 15.9093 34.6845 15.6827 34.8232 15.48C34.9619 15.2773 35.0312 15.064 35.0312 14.84C35.0312 14.536 34.9379 14.2853 34.7512 14.088C34.5645 13.8907 34.3245 13.792 34.0312 13.792C33.7699 13.792 33.5379 13.8827 33.3352 14.064C33.1379 14.2453 33.0339 14.4747 33.0232 14.752C33.0285 14.7787 33.0552 14.8 33.1032 14.816C33.1512 14.832 33.1965 14.84 33.2392 14.84V14.992H31.7352V14.84C31.7725 14.84 31.8152 14.832 31.8632 14.816C31.9112 14.8 31.9352 14.7787 31.9352 14.752C31.9672 14.3947 32.0712 14.072 32.2472 13.784C32.4232 13.4907 32.6659 13.2587 32.9752 13.088C33.2899 12.9173 33.6579 12.832 34.0792 12.832C34.5219 12.832 34.8952 12.9307 35.1992 13.128C35.5032 13.32 35.7299 13.5733 35.8792 13.888C36.0339 14.1973 36.1112 14.5227 36.1112 14.864C36.1112 15.1093 36.0712 15.3307 35.9912 15.528C35.9165 15.7253 35.8045 15.9227 35.6552 16.12C35.5059 16.3173 35.2845 16.576 34.9912 16.896L33.9512 18.04H35.9672C35.9939 18.04 36.0152 18.0213 36.0312 17.984C36.0472 17.9467 36.0552 17.9093 36.0552 17.872H36.2072ZM39.1623 19.184C38.7676 19.184 38.3996 19.0987 38.0583 18.928C37.717 18.752 37.4423 18.496 37.2343 18.16C37.0316 17.824 36.9303 17.4213 36.9303 16.952V15.136C36.9303 14.7467 37.0103 14.3733 37.1703 14.016C37.3303 13.6587 37.5783 13.368 37.9143 13.144C38.2503 12.9147 38.6636 12.8 39.1543 12.8C39.6876 12.8 40.1223 12.912 40.4583 13.136C40.7943 13.36 41.037 13.6507 41.1863 14.008C41.3356 14.36 41.4103 14.736 41.4103 15.136V16.984C41.4103 17.6933 41.205 18.2373 40.7943 18.616C40.389 18.9947 39.845 19.184 39.1623 19.184ZM39.1703 18.128C39.5223 18.128 39.7943 18.0107 39.9863 17.776C40.1836 17.536 40.2823 17.1387 40.2823 16.584V15.208C40.2823 14.7867 40.1863 14.4587 39.9943 14.224C39.8023 13.9893 39.5143 13.872 39.1303 13.872C38.7836 13.872 38.5116 13.9867 38.3143 14.216C38.1223 14.44 38.0263 14.776 38.0263 15.224V16.672C38.0263 17.1467 38.1276 17.5093 38.3303 17.76C38.533 18.0053 38.813 18.128 39.1703 18.128ZM46.6134 17.872V19.168H46.4614C46.4614 19.1307 46.4534 19.0933 46.4374 19.056C46.4214 19.0187 46.4001 19 46.3734 19H42.3014V18.752L44.6774 16.16C44.9068 15.9093 45.0908 15.6827 45.2294 15.48C45.3681 15.2773 45.4374 15.064 45.4374 14.84C45.4374 14.536 45.3441 14.2853 45.1574 14.088C44.9708 13.8907 44.7308 13.792 44.4374 13.792C44.1761 13.792 43.9441 13.8827 43.7414 14.064C43.5441 14.2453 43.4401 14.4747 43.4294 14.752C43.4348 14.7787 43.4614 14.8 43.5094 14.816C43.5574 14.832 43.6028 14.84 43.6454 14.84V14.992H42.1414V14.84C42.1788 14.84 42.2214 14.832 42.2694 14.816C42.3174 14.8 42.3414 14.7787 42.3414 14.752C42.3734 14.3947 42.4774 14.072 42.6534 13.784C42.8294 13.4907 43.0721 13.2587 43.3814 13.088C43.6961 12.9173 44.0641 12.832 44.4854 12.832C44.9281 12.832 45.3014 12.9307 45.6054 13.128C45.9094 13.32 46.1361 13.5733 46.2854 13.888C46.4401 14.1973 46.5174 14.5227 46.5174 14.864C46.5174 15.1093 46.4774 15.3307 46.3974 15.528C46.3228 15.7253 46.2108 15.9227 46.0614 16.12C45.9121 16.3173 45.6908 16.576 45.3974 16.896L44.3574 18.04H46.3734C46.4001 18.04 46.4214 18.0213 46.4374 17.984C46.4534 17.9467 46.4614 17.9093 46.4614 17.872H46.6134ZM51.8566 13V13.824L50.2326 15.224C50.5259 15.2773 50.7872 15.3947 51.0166 15.576C51.2459 15.7573 51.4246 15.984 51.5526 16.256C51.6806 16.5227 51.7446 16.816 51.7446 17.136C51.7446 17.4827 51.6619 17.8107 51.4966 18.12C51.3312 18.424 51.0832 18.6693 50.7526 18.856C50.4219 19.0427 50.0219 19.136 49.5526 19.136C49.0939 19.136 48.6726 19.008 48.2886 18.752C47.9046 18.496 47.6032 18.1147 47.3846 17.608C47.3792 17.5867 47.3526 17.576 47.3046 17.576C47.2512 17.576 47.2086 17.584 47.1766 17.6L47.1206 17.464L48.4886 16.856L48.5526 17C48.5099 17.016 48.4672 17.0427 48.4246 17.08C48.3819 17.112 48.3659 17.1413 48.3766 17.168C48.4672 17.4453 48.6166 17.6747 48.8246 17.856C49.0379 18.032 49.2806 18.12 49.5526 18.12C49.7606 18.12 49.9472 18.0747 50.1126 17.984C50.2832 17.888 50.4139 17.7627 50.5046 17.608C50.6006 17.4533 50.6486 17.2907 50.6486 17.12C50.6486 16.832 50.5499 16.5947 50.3526 16.408C50.1606 16.216 49.9206 16.12 49.6326 16.12C49.5046 16.12 49.3819 16.1387 49.2646 16.176C49.2432 16.1813 49.2326 16.1947 49.2326 16.216C49.2326 16.2427 49.2486 16.272 49.2806 16.304L49.1686 16.408L49.0086 16.224L48.6166 15.808L48.3446 15.512L48.4566 15.408C48.4832 15.4347 48.5152 15.4587 48.5526 15.48C48.5899 15.496 48.6192 15.496 48.6406 15.48L50.3686 13.96H47.9766C47.9499 13.96 47.9286 13.9787 47.9126 14.016C47.8966 14.0533 47.8886 14.0907 47.8886 14.128H47.7366V12.832H47.8886C47.8886 12.8693 47.8966 12.9067 47.9126 12.944C47.9286 12.9813 47.9499 13 47.9766 13H51.8566ZM56.9979 16.712C57.0245 16.712 57.0459 16.696 57.0619 16.664C57.0779 16.632 57.0859 16.6 57.0859 16.568H57.2379V17.664H57.0859C57.0859 17.632 57.0779 17.6 57.0619 17.568C57.0459 17.536 57.0245 17.52 56.9979 17.52H54.9019C54.8752 17.52 54.8539 17.536 54.8379 17.568C54.8219 17.6 54.8139 17.632 54.8139 17.664H54.6619V16.568H54.8139C54.8139 16.6 54.8219 16.632 54.8379 16.664C54.8539 16.696 54.8752 16.712 54.9019 16.712H56.9979ZM62.3748 13C62.9721 13 63.4921 13.1227 63.9348 13.368C64.3774 13.608 64.7188 13.9573 64.9588 14.416C65.2041 14.8747 65.3268 15.4187 65.3268 16.048C65.3268 16.6507 65.1961 17.176 64.9348 17.624C64.6788 18.0667 64.3188 18.408 63.8548 18.648C63.3961 18.8827 62.8708 19 62.2788 19H60.1188V18.848C60.1561 18.848 60.1934 18.84 60.2308 18.824C60.2734 18.808 60.2948 18.7867 60.2948 18.76V13.24C60.2948 13.2133 60.2734 13.192 60.2308 13.176C60.1934 13.16 60.1561 13.152 60.1188 13.152V13H62.3748ZM62.1268 18.056C62.5908 18.056 62.9854 17.9733 63.3108 17.808C63.6414 17.6373 63.8894 17.4 64.0548 17.096C64.2254 16.792 64.3108 16.4373 64.3108 16.032C64.3108 15.3973 64.1401 14.8907 63.7988 14.512C63.4574 14.1333 62.9321 13.944 62.2228 13.944H61.3428V18.056H62.1268ZM66.1623 13.24C66.1623 13.2133 66.141 13.192 66.0983 13.176C66.0556 13.16 66.013 13.152 65.9703 13.152V13H67.4423V13.152C67.3996 13.152 67.357 13.16 67.3143 13.176C67.2716 13.192 67.2503 13.2133 67.2503 13.24V18.76C67.2503 18.7867 67.2716 18.808 67.3143 18.824C67.357 18.84 67.3996 18.848 67.4423 18.848V19H65.9703V18.848C66.013 18.848 66.0556 18.84 66.0983 18.824C66.141 18.808 66.1623 18.7867 66.1623 18.76V13.24ZM71.2118 19.08C70.6411 19.08 70.1158 18.9467 69.6358 18.68C69.1558 18.408 68.7771 18.0347 68.4998 17.56C68.2224 17.08 68.0838 16.5467 68.0838 15.96C68.0838 15.3413 68.2224 14.7947 68.4998 14.32C68.7771 13.8453 69.1504 13.48 69.6198 13.224C70.0891 12.9627 70.6038 12.832 71.1638 12.832C71.7024 12.832 72.1558 12.928 72.5238 13.12C72.8971 13.3067 73.2491 13.5707 73.5798 13.912C73.5904 13.9227 73.6064 13.928 73.6278 13.928C73.6598 13.928 73.7158 13.904 73.7958 13.856L73.8918 13.976L72.7878 14.848L72.6918 14.728C72.7238 14.7067 72.7478 14.68 72.7638 14.648C72.7851 14.6107 72.7851 14.584 72.7638 14.568C72.5398 14.3493 72.3051 14.184 72.0598 14.072C71.8198 13.9547 71.5264 13.896 71.1798 13.896C70.8171 13.896 70.4838 13.9867 70.1798 14.168C69.8758 14.344 69.6358 14.5893 69.4598 14.904C69.2838 15.2187 69.1958 15.5707 69.1958 15.96C69.1958 16.3333 69.2891 16.6747 69.4758 16.984C69.6624 17.288 69.9104 17.528 70.2198 17.704C70.5291 17.88 70.8598 17.968 71.2118 17.968C71.5424 17.968 71.8251 17.912 72.0598 17.8C72.2944 17.6827 72.5158 17.5093 72.7238 17.28L72.7398 17.248C72.7398 17.2213 72.7264 17.192 72.6998 17.16C72.6784 17.1227 72.6544 17.096 72.6278 17.08L72.7318 16.968L73.9238 17.968L73.8278 18.088C73.7958 18.0613 73.7558 18.0373 73.7078 18.016C73.6598 17.9947 73.6278 17.9947 73.6118 18.016C73.2758 18.3787 72.9238 18.648 72.5558 18.824C72.1878 18.9947 71.7398 19.08 71.2118 19.08ZM81.0431 17.872V19.168H80.8911C80.8911 19.1307 80.8831 19.0933 80.8671 19.056C80.8511 19.0187 80.8298 19 80.8031 19H76.7311V18.752L79.1071 16.16C79.3365 15.9093 79.5205 15.6827 79.6591 15.48C79.7978 15.2773 79.8671 15.064 79.8671 14.84C79.8671 14.536 79.7738 14.2853 79.5871 14.088C79.4005 13.8907 79.1605 13.792 78.8671 13.792C78.6058 13.792 78.3738 13.8827 78.1711 14.064C77.9738 14.2453 77.8698 14.4747 77.8591 14.752C77.8645 14.7787 77.8911 14.8 77.9391 14.816C77.9871 14.832 78.0325 14.84 78.0751 14.84V14.992H76.5711V14.84C76.6085 14.84 76.6511 14.832 76.6991 14.816C76.7471 14.8 76.7711 14.7787 76.7711 14.752C76.8031 14.3947 76.9071 14.072 77.0831 13.784C77.2591 13.4907 77.5018 13.2587 77.8111 13.088C78.1258 12.9173 78.4938 12.832 78.9151 12.832C79.3578 12.832 79.7311 12.9307 80.0351 13.128C80.3391 13.32 80.5658 13.5733 80.7151 13.888C80.8698 14.1973 80.9471 14.5227 80.9471 14.864C80.9471 15.1093 80.9071 15.3307 80.8271 15.528C80.7525 15.7253 80.6405 15.9227 80.4911 16.12C80.3418 16.3173 80.1205 16.576 79.8271 16.896L78.7871 18.04H80.8031C80.8298 18.04 80.8511 18.0213 80.8671 17.984C80.8831 17.9467 80.8911 17.9093 80.8911 17.872H81.0431ZM83.9983 19.184C83.6036 19.184 83.2356 19.0987 82.8943 18.928C82.5529 18.752 82.2783 18.496 82.0703 18.16C81.8676 17.824 81.7663 17.4213 81.7663 16.952V15.136C81.7663 14.7467 81.8463 14.3733 82.0063 14.016C82.1663 13.6587 82.4143 13.368 82.7503 13.144C83.0863 12.9147 83.4996 12.8 83.9903 12.8C84.5236 12.8 84.9583 12.912 85.2943 13.136C85.6303 13.36 85.8729 13.6507 86.0223 14.008C86.1716 14.36 86.2463 14.736 86.2463 15.136V16.984C86.2463 17.6933 86.0409 18.2373 85.6302 18.616C85.2249 18.9947 84.6809 19.184 83.9983 19.184ZM84.0063 18.128C84.3583 18.128 84.6303 18.0107 84.8223 17.776C85.0196 17.536 85.1183 17.1387 85.1183 16.584V15.208C85.1183 14.7867 85.0223 14.4587 84.8303 14.224C84.6383 13.9893 84.3503 13.872 83.9663 13.872C83.6196 13.872 83.3476 13.9867 83.1503 14.216C82.9583 14.44 82.8623 14.776 82.8623 15.224V16.672C82.8623 17.1467 82.9636 17.5093 83.1663 17.76C83.3689 18.0053 83.6489 18.128 84.0063 18.128ZM91.4494 17.872V19.168H91.2974C91.2974 19.1307 91.2894 19.0933 91.2734 19.056C91.2574 19.0187 91.236 19 91.2094 19H87.1374V18.752L89.5134 16.16C89.7427 15.9093 89.9267 15.6827 90.0654 15.48C90.204 15.2773 90.2734 15.064 90.2734 14.84C90.2734 14.536 90.18 14.2853 89.9934 14.088C89.8067 13.8907 89.5667 13.792 89.2734 13.792C89.012 13.792 88.78 13.8827 88.5774 14.064C88.38 14.2453 88.276 14.4747 88.2654 14.752C88.2707 14.7787 88.2974 14.8 88.3454 14.816C88.3934 14.832 88.4387 14.84 88.4814 14.84V14.992H86.9774V14.84C87.0147 14.84 87.0574 14.832 87.1054 14.816C87.1534 14.8 87.1774 14.7787 87.1774 14.752C87.2094 14.3947 87.3134 14.072 87.4894 13.784C87.6654 13.4907 87.908 13.2587 88.2174 13.088C88.532 12.9173 88.9 12.832 89.3214 12.832C89.764 12.832 90.1374 12.9307 90.4414 13.128C90.7454 13.32 90.972 13.5733 91.1214 13.888C91.276 14.1973 91.3534 14.5227 91.3534 14.864C91.3534 15.1093 91.3134 15.3307 91.2334 15.528C91.1587 15.7253 91.0467 15.9227 90.8974 16.12C90.748 16.3173 90.5267 16.576 90.2334 16.896L89.1934 18.04H91.2094C91.236 18.04 91.2574 18.0213 91.2734 17.984C91.2894 17.9467 91.2974 17.9093 91.2974 17.872H91.4494ZM96.6925 13V13.824L95.0685 15.224C95.3618 15.2773 95.6232 15.3947 95.8525 15.576C96.0818 15.7573 96.2605 15.984 96.3885 16.256C96.5165 16.5227 96.5805 16.816 96.5805 17.136C96.5805 17.4827 96.4978 17.8107 96.3325 18.12C96.1672 18.424 95.9192 18.6693 95.5885 18.856C95.2578 19.0427 94.8578 19.136 94.3885 19.136C93.9298 19.136 93.5085 19.008 93.1245 18.752C92.7405 18.496 92.4392 18.1147 92.2205 17.608C92.2152 17.5867 92.1885 17.576 92.1405 17.576C92.0872 17.576 92.0445 17.584 92.0125 17.6L91.9565 17.464L93.3245 16.856L93.3885 17C93.3458 17.016 93.3032 17.0427 93.2605 17.08C93.2178 17.112 93.2018 17.1413 93.2125 17.168C93.3032 17.4453 93.4525 17.6747 93.6605 17.856C93.8738 18.032 94.1165 18.12 94.3885 18.12C94.5965 18.12 94.7832 18.0747 94.9485 17.984C95.1192 17.888 95.2498 17.7627 95.3405 17.608C95.4365 17.4533 95.4845 17.2907 95.4845 17.12C95.4845 16.832 95.3858 16.5947 95.1885 16.408C94.9965 16.216 94.7565 16.12 94.4685 16.12C94.3405 16.12 94.2178 16.1387 94.1005 16.176C94.0792 16.1813 94.0685 16.1947 94.0685 16.216C94.0685 16.2427 94.0845 16.272 94.1165 16.304L94.0045 16.408L93.8445 16.224L93.4525 15.808L93.1805 15.512L93.2925 15.408C93.3192 15.4347 93.3512 15.4587 93.3885 15.48C93.4258 15.496 93.4552 15.496 93.4765 15.48L95.2045 13.96H92.8125C92.7858 13.96 92.7645 13.9787 92.7485 14.016C92.7325 14.0533 92.7245 14.0907 92.7245 14.128H92.5725V12.832H92.7245C92.7245 12.8693 92.7325 12.9067 92.7485 12.944C92.7645 12.9813 92.7858 13 92.8125 13H96.6925Z" fill="white"/>
</svg>
