<svg width="112" height="30" viewBox="0 0 112 30" fill="none" xmlns="http://www.w3.org/2000/svg">
<rect x="3.35999" width="108.64" height="30" rx="10" fill="#27414B"/>
<path d="M0 15L3.36 11L3.36 19L0 15Z" fill="#27414B"/>
<path d="M20.336 18.76C20.336 18.7867 20.3547 18.808 20.392 18.824C20.4347 18.84 20.4773 18.848 20.52 18.848V19H19.12V18.848C19.1627 18.848 19.2027 18.84 19.24 18.824C19.2827 18.808 19.304 18.7867 19.304 18.76V14.176L16.96 19.304L14.624 14.16V18.76C14.624 18.7867 14.6427 18.808 14.68 18.824C14.7227 18.84 14.7653 18.848 14.808 18.848V19H13.4V18.848C13.4427 18.848 13.4827 18.84 13.52 18.824C13.5627 18.808 13.584 18.7867 13.584 18.76V13.24C13.584 13.2133 13.5627 13.192 13.52 13.176C13.4827 13.16 13.4453 13.152 13.408 13.152V13H15.472V13.152C15.408 13.152 15.3653 13.168 15.344 13.2C15.328 13.2267 15.328 13.2587 15.344 13.296L16.968 17.072L18.616 13.296C18.6267 13.264 18.6107 13.232 18.568 13.2C18.5253 13.168 18.472 13.152 18.408 13.152V13H20.512V13.152C20.4747 13.152 20.4347 13.16 20.392 13.176C20.3547 13.192 20.336 13.2133 20.336 13.24V18.76ZM27.1859 18.776C27.2019 18.824 27.2659 18.848 27.3779 18.848V19H25.7539V18.848C25.8232 18.848 25.8712 18.832 25.8979 18.8C25.9245 18.768 25.9299 18.736 25.9139 18.704L25.4739 17.576H22.8659L22.4259 18.704L22.4179 18.728C22.4179 18.76 22.4312 18.7893 22.4579 18.816C22.4899 18.8373 22.5299 18.848 22.5779 18.848V19H21.0019V18.848C21.1085 18.848 21.1725 18.824 21.1939 18.776L23.4179 13.368C23.4339 13.336 23.4419 13.3067 23.4419 13.28C23.4419 13.232 23.4205 13.2 23.3779 13.184C23.3352 13.1627 23.2899 13.152 23.2419 13.152V13H25.1059V13.152C25.0579 13.152 25.0125 13.1627 24.9699 13.184C24.9272 13.2 24.9059 13.232 24.9059 13.28C24.9059 13.3067 24.9139 13.336 24.9299 13.368L27.1859 18.776ZM24.1699 14.248L23.2259 16.656H25.1139L24.1699 14.248ZM32.5329 18.792C32.5543 18.8293 32.6263 18.848 32.7489 18.848V19H31.1249V18.848C31.1996 18.848 31.2503 18.8347 31.2769 18.808C31.3036 18.7813 31.3063 18.7547 31.2849 18.728L29.9409 16.464H29.1169V18.76C29.1169 18.7867 29.1383 18.808 29.1809 18.824C29.2236 18.84 29.2636 18.848 29.3009 18.848V19H27.8609V18.848C27.8983 18.848 27.9383 18.84 27.9809 18.824C28.0236 18.808 28.0449 18.7867 28.0449 18.76V13.24C28.0449 13.2133 28.0236 13.192 27.9809 13.176C27.9436 13.16 27.9063 13.152 27.8689 13.152V13H30.3089C31.0129 13 31.5436 13.16 31.9009 13.48C32.2636 13.7947 32.4449 14.2027 32.4449 14.704C32.4449 15.168 32.3169 15.5413 32.0609 15.824C31.8103 16.1067 31.4849 16.296 31.0849 16.392L32.5329 18.792ZM29.1169 13.928V15.496H30.4289C30.7596 15.496 31.0076 15.4187 31.1729 15.264C31.3383 15.1093 31.4209 14.9227 31.4209 14.704C31.4209 14.4907 31.3276 14.3093 31.1409 14.16C30.9543 14.0053 30.7249 13.928 30.4529 13.928H29.1169ZM39.9884 17.872V19.168H39.8364C39.8364 19.1307 39.8284 19.0933 39.8124 19.056C39.7964 19.0187 39.7751 19 39.7484 19H35.6764V18.752L38.0524 16.16C38.2818 15.9093 38.4658 15.6827 38.6044 15.48C38.7431 15.2773 38.8124 15.064 38.8124 14.84C38.8124 14.536 38.7191 14.2853 38.5324 14.088C38.3458 13.8907 38.1058 13.792 37.8124 13.792C37.5511 13.792 37.3191 13.8827 37.1164 14.064C36.9191 14.2453 36.8151 14.4747 36.8044 14.752C36.8098 14.7787 36.8364 14.8 36.8844 14.816C36.9324 14.832 36.9778 14.84 37.0204 14.84V14.992H35.5164V14.84C35.5538 14.84 35.5964 14.832 35.6444 14.816C35.6924 14.8 35.7164 14.7787 35.7164 14.752C35.7484 14.3947 35.8524 14.072 36.0284 13.784C36.2044 13.4907 36.4471 13.2587 36.7564 13.088C37.0711 12.9173 37.4391 12.832 37.8604 12.832C38.3031 12.832 38.6764 12.9307 38.9804 13.128C39.2844 13.32 39.5111 13.5733 39.6604 13.888C39.8151 14.1973 39.8924 14.5227 39.8924 14.864C39.8924 15.1093 39.8524 15.3307 39.7724 15.528C39.6978 15.7253 39.5858 15.9227 39.4364 16.12C39.2871 16.3173 39.0658 16.576 38.7724 16.896L37.7324 18.04H39.7484C39.7751 18.04 39.7964 18.0213 39.8124 17.984C39.8284 17.9467 39.8364 17.9093 39.8364 17.872H39.9884ZM42.9436 19.184C42.5489 19.184 42.1809 19.0987 41.8396 18.928C41.4982 18.752 41.2236 18.496 41.0156 18.16C40.8129 17.824 40.7116 17.4213 40.7116 16.952V15.136C40.7116 14.7467 40.7916 14.3733 40.9516 14.016C41.1116 13.6587 41.3596 13.368 41.6956 13.144C42.0316 12.9147 42.4449 12.8 42.9356 12.8C43.4689 12.8 43.9036 12.912 44.2396 13.136C44.5756 13.36 44.8182 13.6507 44.9676 14.008C45.1169 14.36 45.1916 14.736 45.1916 15.136V16.984C45.1916 17.6933 44.9862 18.2373 44.5756 18.616C44.1702 18.9947 43.6262 19.184 42.9436 19.184ZM42.9516 18.128C43.3036 18.128 43.5756 18.0107 43.7676 17.776C43.9649 17.536 44.0636 17.1387 44.0636 16.584V15.208C44.0636 14.7867 43.9676 14.4587 43.7756 14.224C43.5836 13.9893 43.2956 13.872 42.9116 13.872C42.5649 13.872 42.2929 13.9867 42.0956 14.216C41.9036 14.44 41.8076 14.776 41.8076 15.224V16.672C41.8076 17.1467 41.9089 17.5093 42.1116 17.76C42.3142 18.0053 42.5942 18.128 42.9516 18.128ZM48.9867 18.76C48.9867 18.7867 49.008 18.808 49.0507 18.824C49.0934 18.84 49.136 18.848 49.1787 18.848V19H47.6987V18.848C47.7414 18.848 47.784 18.84 47.8267 18.824C47.8694 18.808 47.8907 18.7867 47.8907 18.76V13.96H47.0587C47.032 13.96 47.0107 13.9787 46.9947 14.016C46.9787 14.0533 46.9707 14.0907 46.9707 14.128H46.8187V12.832H46.9707C46.9707 12.8693 46.9787 12.9067 46.9947 12.944C47.0107 12.9813 47.032 13 47.0587 13H49.1627V13.152C49.1254 13.152 49.0854 13.16 49.0427 13.176C49.0054 13.192 48.9867 13.2133 48.9867 13.24V18.76ZM55.7578 13.6L52.6538 18.952C52.6485 18.9573 52.6458 18.9653 52.6458 18.976C52.6458 18.9973 52.6591 19.0213 52.6858 19.048C52.7178 19.08 52.7471 19.104 52.7738 19.12L52.7018 19.256L51.3978 18.536L51.4698 18.408C51.5338 18.4347 51.5871 18.448 51.6298 18.448C51.6618 18.448 51.6805 18.44 51.6858 18.424L54.2778 13.968H51.3578C51.3311 13.968 51.3098 13.9867 51.2938 14.024C51.2778 14.0613 51.2698 14.0987 51.2698 14.136H51.1178V12.832H51.2698C51.2698 12.8693 51.2778 12.9067 51.2938 12.944C51.3098 12.9813 51.3311 13 51.3578 13H55.7578V13.6ZM60.7791 16.712C60.8058 16.712 60.8271 16.696 60.8431 16.664C60.8591 16.632 60.8671 16.6 60.8671 16.568H61.0191V17.664H60.8671C60.8671 17.632 60.8591 17.6 60.8431 17.568C60.8271 17.536 60.8058 17.52 60.7791 17.52H58.6831C58.6565 17.52 58.6351 17.536 58.6191 17.568C58.6031 17.6 58.5951 17.632 58.5951 17.664H58.4431V16.568H58.5951C58.5951 16.6 58.6031 16.632 58.6191 16.664C58.6351 16.696 58.6565 16.712 58.6831 16.712H60.7791ZM65.14 19.088C64.916 19.088 64.7053 19.0533 64.508 18.984C64.316 18.9147 64.1027 18.8027 63.868 18.648C63.8627 18.6427 63.8547 18.64 63.844 18.64C63.8227 18.64 63.796 18.6533 63.764 18.68C63.7373 18.7013 63.716 18.7227 63.7 18.744L63.58 18.656L64.332 17.552L64.46 17.64C64.428 17.6827 64.412 17.7307 64.412 17.784C64.412 17.8107 64.42 17.832 64.436 17.848C64.5587 17.9387 64.66 17.9973 64.74 18.024C64.82 18.0507 64.924 18.064 65.052 18.064C65.212 18.064 65.3507 17.9947 65.468 17.856C65.5907 17.7173 65.652 17.5253 65.652 17.28V13.24C65.652 13.2133 65.6307 13.192 65.588 13.176C65.5453 13.16 65.5053 13.152 65.468 13.152V13H66.884V13.152C66.8467 13.152 66.8067 13.16 66.764 13.176C66.7213 13.192 66.7 13.2133 66.7 13.24V17.312C66.7 17.8827 66.5613 18.3227 66.284 18.632C66.012 18.936 65.6307 19.088 65.14 19.088ZM70.4093 19.088C69.9186 19.088 69.4813 18.9867 69.0973 18.784C68.7133 18.5813 68.4146 18.288 68.2013 17.904C67.9879 17.5147 67.8813 17.0587 67.8813 16.536V13.24C67.8813 13.2133 67.8573 13.192 67.8092 13.176C67.7666 13.16 67.7239 13.152 67.6813 13.152V13H69.2253V13.152C69.1826 13.152 69.1373 13.16 69.0893 13.176C69.0466 13.192 69.0253 13.2133 69.0253 13.24V16.296C69.0253 16.872 69.1399 17.3147 69.3693 17.624C69.6039 17.9333 69.9506 18.088 70.4093 18.088C70.9106 18.088 71.2439 17.928 71.4093 17.608C71.5799 17.288 71.6653 16.872 71.6653 16.36V13.24C71.6653 13.2133 71.6413 13.192 71.5933 13.176C71.5506 13.16 71.5079 13.152 71.4653 13.152V13H73.0173V13.152C72.9746 13.152 72.9293 13.16 72.8813 13.176C72.8386 13.192 72.8173 13.2133 72.8173 13.24V16.392C72.8173 17.24 72.6226 17.9013 72.2333 18.376C71.8493 18.8507 71.2413 19.088 70.4093 19.088ZM77.8621 17.856V19.168H77.7101C77.7101 19.136 77.7021 19.0987 77.6861 19.056C77.6701 19.0187 77.6487 19 77.6221 19H73.8221V18.848C73.8594 18.848 73.8967 18.84 73.9341 18.824C73.9767 18.808 73.9981 18.7867 73.9981 18.76V13.24C73.9981 13.2133 73.9767 13.192 73.9341 13.176C73.8914 13.16 73.8514 13.152 73.8141 13.152V13H75.2541V13.152C75.2167 13.152 75.1767 13.16 75.1341 13.176C75.0914 13.192 75.0701 13.2133 75.0701 13.24V18.024H77.6221C77.6487 18.024 77.6701 18.0053 77.6861 17.968C77.7021 17.9253 77.7101 17.888 77.7101 17.856H77.8621ZM85.1838 17.872V19.168H85.0318C85.0318 19.1307 85.0238 19.0933 85.0078 19.056C84.9918 19.0187 84.9704 19 84.9438 19H80.8717V18.752L83.2478 16.16C83.4771 15.9093 83.6611 15.6827 83.7998 15.48C83.9384 15.2773 84.0078 15.064 84.0078 14.84C84.0078 14.536 83.9144 14.2853 83.7278 14.088C83.5411 13.8907 83.3011 13.792 83.0078 13.792C82.7464 13.792 82.5144 13.8827 82.3118 14.064C82.1144 14.2453 82.0104 14.4747 81.9998 14.752C82.0051 14.7787 82.0318 14.8 82.0798 14.816C82.1278 14.832 82.1731 14.84 82.2158 14.84V14.992H80.7118V14.84C80.7491 14.84 80.7918 14.832 80.8398 14.816C80.8878 14.8 80.9118 14.7787 80.9118 14.752C80.9438 14.3947 81.0478 14.072 81.2238 13.784C81.3998 13.4907 81.6424 13.2587 81.9518 13.088C82.2664 12.9173 82.6344 12.832 83.0558 12.832C83.4984 12.832 83.8718 12.9307 84.1758 13.128C84.4798 13.32 84.7064 13.5733 84.8558 13.888C85.0104 14.1973 85.0878 14.5227 85.0878 14.864C85.0878 15.1093 85.0478 15.3307 84.9678 15.528C84.8931 15.7253 84.7811 15.9227 84.6318 16.12C84.4824 16.3173 84.2611 16.576 83.9678 16.896L82.9278 18.04H84.9438C84.9704 18.04 84.9918 18.0213 85.0078 17.984C85.0238 17.9467 85.0318 17.9093 85.0318 17.872H85.1838ZM88.1389 19.184C87.7442 19.184 87.3762 19.0987 87.0349 18.928C86.6935 18.752 86.4189 18.496 86.2109 18.16C86.0082 17.824 85.9069 17.4213 85.9069 16.952V15.136C85.9069 14.7467 85.9869 14.3733 86.1469 14.016C86.3069 13.6587 86.5549 13.368 86.8909 13.144C87.2269 12.9147 87.6402 12.8 88.1309 12.8C88.6642 12.8 89.0989 12.912 89.4349 13.136C89.7709 13.36 90.0135 13.6507 90.1629 14.008C90.3122 14.36 90.3869 14.736 90.3869 15.136V16.984C90.3869 17.6933 90.1815 18.2373 89.7709 18.616C89.3655 18.9947 88.8215 19.184 88.1389 19.184ZM88.1469 18.128C88.4989 18.128 88.7709 18.0107 88.9629 17.776C89.1602 17.536 89.2589 17.1387 89.2589 16.584V15.208C89.2589 14.7867 89.1629 14.4587 88.9709 14.224C88.7789 13.9893 88.4909 13.872 88.1069 13.872C87.7602 13.872 87.4882 13.9867 87.2909 14.216C87.0989 14.44 87.0029 14.776 87.0029 15.224V16.672C87.0029 17.1467 87.1042 17.5093 87.3069 17.76C87.5095 18.0053 87.7895 18.128 88.1469 18.128ZM94.182 18.76C94.182 18.7867 94.2033 18.808 94.246 18.824C94.2887 18.84 94.3313 18.848 94.374 18.848V19H92.894V18.848C92.9367 18.848 92.9793 18.84 93.022 18.824C93.0647 18.808 93.086 18.7867 93.086 18.76V13.96H92.254C92.2273 13.96 92.206 13.9787 92.19 14.016C92.174 14.0533 92.166 14.0907 92.166 14.128H92.014V12.832H92.166C92.166 12.8693 92.174 12.9067 92.19 12.944C92.206 12.9813 92.2273 13 92.254 13H94.358V13.152C94.3207 13.152 94.2807 13.16 94.238 13.176C94.2007 13.192 94.182 13.2133 94.182 13.24V18.76ZM100.953 13.6L97.8491 18.952C97.8438 18.9573 97.8411 18.9653 97.8411 18.976C97.8411 18.9973 97.8545 19.0213 97.8811 19.048C97.9131 19.08 97.9425 19.104 97.9691 19.12L97.8971 19.256L96.5931 18.536L96.6651 18.408C96.7291 18.4347 96.7825 18.448 96.8251 18.448C96.8571 18.448 96.8758 18.44 96.8811 18.424L99.4731 13.968H96.5531C96.5265 13.968 96.5051 13.9867 96.4891 14.024C96.4731 14.0613 96.4651 14.0987 96.4651 14.136H96.3131V12.832H96.4651C96.4651 12.8693 96.4731 12.9067 96.4891 12.944C96.5051 12.9813 96.5265 13 96.5531 13H100.953V13.6Z" fill="white"/>
</svg>
