<svg width="66" height="19" viewBox="0 0 66 19" fill="none" xmlns="http://www.w3.org/2000/svg">
<path d="M13.475 17.65C14.0417 17.3333 14.4167 16.9333 14.6 16.45C14.8 15.9667 14.9 15.4333 14.9 14.85V10.525L10.625 2.6C10.3417 2.1 10.0417 1.71667 9.725 1.45C9.425 1.16667 9.08333 1.025 8.7 1.025C7.58333 1.025 6.725 1.54167 6.125 2.575C5.54167 3.60833 5.25 4.85833 5.25 6.325C5.25 7.30833 5.38333 8.25 5.65 9.15C5.93333 10.0333 6.34167 10.7583 6.875 11.325C7.40833 11.875 8.03333 12.15 8.75 12.15C9.05 12.15 9.29167 12.0667 9.475 11.9C9.65833 11.7333 9.75 11.4833 9.75 11.15C9.75 10.85 9.65833 10.5667 9.475 10.3C9.30833 10.0167 9.025 9.85 8.625 9.8C8.625 9.48333 8.8 9.175 9.15 8.875C9.5 8.55833 9.9 8.4 10.35 8.4C10.9667 8.4 11.45 8.56667 11.8 8.9C12.15 9.21667 12.325 9.61667 12.325 10.1C12.325 10.5 12.1917 10.8917 11.925 11.275C11.675 11.6583 11.2917 11.975 10.775 12.225C10.2583 12.4583 9.63333 12.575 8.9 12.575C7.08333 12.575 5.54167 12.3083 4.275 11.775C3.025 11.225 2.08333 10.5083 1.45 9.625C0.816667 8.725 0.5 7.76667 0.5 6.75C0.5 5.73333 0.8 4.76667 1.4 3.85C2.01667 2.93333 2.90833 2.16667 4.075 1.55C5.24167 0.933332 6.63333 0.566666 8.25 0.449999H17.45V0.849999C16.7667 0.849999 16.425 1.125 16.425 1.675C16.425 1.925 16.4917 2.18333 16.625 2.45L20.375 9.425L22.15 5.7C22.7167 4.5 23.1 3.65 23.3 3.15C23.5 2.63333 23.6 2.2 23.6 1.85C23.6 1.45 23.45 1.15 23.15 0.949999V0.449999H26.75V0.949999C26.0833 1.35 25.4667 1.90833 24.9 2.625C24.35 3.325 23.7667 4.34167 23.15 5.675L20.9 10.5V14.85C20.9 15.45 20.9917 15.9917 21.175 16.475C21.375 16.9417 21.7583 17.3333 22.325 17.65V18H13.475V17.65ZM29.9059 18.4C29.1225 18.4 28.3725 18.2417 27.6559 17.925C26.9392 17.5917 26.3559 17.1167 25.9059 16.5C25.4725 15.8833 25.2559 15.175 25.2559 14.375C25.2559 13.5917 25.5309 12.875 26.0809 12.225C26.6475 11.5583 27.4892 11.025 28.6059 10.625C29.7392 10.2083 31.1225 10 32.7559 10C33.2059 10 33.5475 10.0083 33.7809 10.025V6.9C33.7809 6.21667 33.6392 5.69167 33.3559 5.325C33.0892 4.94167 32.7642 4.75 32.3809 4.75C31.9975 4.75 31.6642 4.94167 31.3809 5.325C31.0975 5.69167 30.9559 6.20833 30.9559 6.875C30.9559 7.74167 31.2725 8.45833 31.9059 9.025C30.9225 9.39167 30.0725 9.575 29.3559 9.575C28.5392 9.575 27.9059 9.38333 27.4559 9C27.0059 8.61667 26.7809 8.14167 26.7809 7.575C26.7809 6.525 27.2975 5.70833 28.3309 5.125C29.3642 4.525 30.6225 4.225 32.1059 4.225C33.3725 4.225 34.5892 4.45833 35.7559 4.925C36.9392 5.375 37.9059 6.05833 38.6559 6.975C39.4059 7.89167 39.7809 9.01667 39.7809 10.35V14.85C39.7809 15.6667 39.8809 16.325 40.0809 16.825C40.2975 17.325 40.6725 17.6 41.2059 17.65V18H36.4309C35.7142 18 35.1309 17.825 34.6809 17.475C34.2475 17.1083 33.9725 16.6167 33.8559 16C33.4892 16.8 32.9475 17.4 32.2309 17.8C31.5309 18.2 30.7559 18.4 29.9059 18.4ZM33.7809 10.675C32.7809 10.7583 31.9892 11.1583 31.4059 11.875C30.8225 12.575 30.5309 13.3833 30.5309 14.3C30.5309 14.9167 30.6809 15.4 30.9809 15.75C31.2975 16.1 31.6642 16.275 32.0809 16.275C32.4142 16.275 32.7309 16.1667 33.0309 15.95C33.3309 15.7333 33.5809 15.425 33.7809 15.025V10.675ZM49.8551 18.35C48.5217 18.35 47.2551 18.1083 46.0551 17.625C44.8551 17.1417 43.8717 16.3833 43.1051 15.35C42.3384 14.3 41.9551 12.9833 41.9551 11.4C41.9551 10.1833 42.2384 9.025 42.8051 7.925C43.3717 6.825 44.2384 5.93333 45.4051 5.25C46.5884 4.55 48.0384 4.2 49.7551 4.2C51.4217 4.2 52.8634 4.50833 54.0801 5.125C55.2967 5.74167 55.9051 6.725 55.9051 8.075C55.9051 9.35833 55.3884 10.3667 54.3551 11.1C53.3217 11.8167 52.0384 12.175 50.5051 12.175C49.7717 12.175 48.9551 12.0667 48.0551 11.85C48.2717 12.7833 48.6301 13.5917 49.1301 14.275C49.6301 14.9417 50.1967 15.45 50.8301 15.8C51.4634 16.1333 52.0967 16.3 52.7301 16.3C53.4634 16.3 54.0801 16.0583 54.5801 15.575C55.0801 15.0917 55.3967 14.3833 55.5301 13.45H56.0301C55.9634 14.45 55.6467 15.325 55.0801 16.075C54.5134 16.8083 53.7717 17.375 52.8551 17.775C51.9384 18.1583 50.9384 18.35 49.8551 18.35ZM47.9551 11.375C48.1884 11.4083 48.3634 11.425 48.4801 11.425C49.4134 11.425 50.1634 10.975 50.7301 10.075C51.3134 9.175 51.6051 8.03333 51.6051 6.65C51.6051 6.05 51.5134 5.55833 51.3301 5.175C51.1634 4.79167 50.9051 4.6 50.5551 4.6C49.7051 4.6 49.0384 5.10833 48.5551 6.125C48.0717 7.125 47.8301 8.35 47.8301 9.8C47.8301 10.3167 47.8717 10.8417 47.9551 11.375ZM57.0186 17.65C57.5852 17.3333 57.9602 16.9333 58.1436 16.45C58.3436 15.9667 58.4436 15.4333 58.4436 14.85V4.825C58.4436 3.65833 58.4102 2.81667 58.3436 2.3C58.2769 1.78333 58.1436 1.41667 57.9436 1.2C57.7602 0.983332 57.4519 0.841666 57.0186 0.775V0.449999H64.4436V14.85C64.4436 15.45 64.5352 15.9917 64.7186 16.475C64.9186 16.9417 65.3019 17.3333 65.8686 17.65V18H57.0186V17.65Z" fill="#011936"/>
</svg>
